<svg width="442" height="456" viewBox="0 0 442 456" fill="none" xmlns="http://www.w3.org/2000/svg">
<path d="M357.76 110.87L355.92 108.24C339.92 85.81 313.12 73.56 286.09 77.24C282.608 77.7197 279.166 78.4516 275.79 79.43C251.48 86.54 231.37 106.8 224.23 131.38C220.03 145.84 219.76 162.14 210.64 174.04C198.77 189.53 176.84 191.6 157.48 192.43C138.12 193.26 116.18 195.38 104.39 210.92C97 220.66 95.39 233.84 96.94 246.03C101.06 278.3 125.77 305.6 155.54 317.88C185.31 330.16 219.21 328.96 250.16 320.31C293.47 308.24 333.54 280.73 355.92 241.24C378.3 201.75 380.92 150 357.76 110.87Z" fill="#F5F5F5"/>
<path d="M422.33 388.31C422.33 388.45 331.7 388.57 219.93 388.57C108.16 388.57 17.52 388.45 17.52 388.31C17.52 388.17 108.13 388.05 219.93 388.05C331.73 388.05 422.33 388.16 422.33 388.31Z" fill="#263238"/>
<path d="M254.73 289.7H240.2V388.31H254.73V289.7Z" fill="#455A64"/>
<path d="M254.73 388.31C254.73 388.31 254.73 388.13 254.73 387.8C254.73 387.47 254.73 386.96 254.73 386.32C254.73 385.01 254.73 383.11 254.73 380.67C254.73 375.75 254.68 368.67 254.65 359.8C254.65 342.12 254.58 317.5 254.54 289.7L254.8 289.96H240.2L240.46 289.7C240.4 332.32 240.35 369.42 240.33 388.31L240.2 388.18L250.92 388.24H253.72H254.72H253.8H251.02L240.19 388.31H240.06V388.19C240.06 369.3 239.99 332.19 239.93 289.58V289.32H254.98V289.58C254.92 317.58 254.92 342.24 254.92 359.98C254.92 368.8 254.87 375.89 254.85 380.8C254.85 383.21 254.85 385.09 254.85 386.39C254.85 387.01 254.85 387.49 254.85 387.83C254.85 388.17 254.73 388.31 254.73 388.31Z" fill="#263238"/>
<path d="M367.27 288.84H352.74V388.3H367.27V288.84Z" fill="#455A64"/>
<path d="M367.27 388.31C367.27 388.31 367.27 388.13 367.27 387.79C367.27 387.45 367.27 386.94 367.27 386.3C367.27 384.98 367.27 383.07 367.27 380.6C367.27 375.6 367.27 368.47 367.19 359.55C367.19 341.71 367.12 316.88 367.08 288.84L367.34 289.1H352.74L353 288.84C352.94 331.84 352.89 369.31 352.87 388.31L352.74 388.18L363.5 388.25H366.3H367.3H366.38H363.61L352.77 388.32H352.65V388.2C352.65 369.2 352.57 331.76 352.51 288.73V288.47H367.56V288.72C367.51 316.84 367.47 341.72 367.44 359.61C367.44 368.51 367.39 375.66 367.37 380.61C367.37 383.05 367.37 384.95 367.37 386.25C367.37 386.88 367.37 387.36 367.37 387.71C367.37 388.06 367.27 388.31 367.27 388.31Z" fill="#263238"/>
<path d="M374.09 291.01L234.77 291.27V239.68H374.09V291.01Z" fill="#455A64"/>
<path d="M374.09 291.01C374.09 291.01 374.09 290.69 374.09 290.1C374.09 289.51 374.09 288.61 374.09 287.46C374.09 285.13 374.09 281.71 374.09 277.3C374.09 268.47 374.03 255.66 373.99 239.69L374.17 239.86L234.85 239.95L235.11 239.69V239.81C235.11 257.76 235.11 275.14 235.11 291.27L234.86 291.02L334.64 290.95H363.64H371.43H373.43H374.13H373.47H371.47L363.73 291L334.73 291.13L234.78 291.43H234.53V291.24C234.53 275.11 234.53 257.73 234.53 239.78V239.39H234.79L374.11 239.48H374.29V239.66C374.29 255.66 374.21 268.52 374.19 277.37C374.19 281.77 374.19 285.17 374.19 287.49C374.19 288.63 374.19 289.49 374.19 290.1C374.19 290.71 374.09 291.01 374.09 291.01Z" fill="#263238"/>
<path d="M362.64 280.82C362.64 280.82 362.64 280.61 362.64 280.22C362.64 279.83 362.64 279.22 362.64 278.51C362.64 276.99 362.64 274.78 362.59 271.91C362.59 266.16 362.54 257.82 362.49 247.34L362.68 247.5L245.35 247.58L245.63 247.34C245.63 258.97 245.63 270.25 245.63 280.82L245.36 280.58L329.27 280.69L353.8 280.76H360.38H362.09H362.69H362.13H360.45H353.92L329.46 280.82L245.36 280.93H245.08V247.1H245.36L362.69 247.18H362.87V247.34C362.87 257.86 362.79 266.24 362.77 272.01C362.77 274.86 362.77 277.06 362.77 278.57C362.77 279.3 362.77 279.86 362.77 280.26C362.77 280.66 362.64 280.82 362.64 280.82Z" fill="#263238"/>
<path d="M249.5 276.43C249.012 277.271 248.387 278.025 247.65 278.66C247.02 279.412 246.27 280.054 245.43 280.56C245.914 279.716 246.54 278.962 247.28 278.33C247.906 277.575 248.657 276.932 249.5 276.43V276.43Z" fill="#263238"/>
<path d="M249.5 251.73C248.631 251.192 247.854 250.516 247.2 249.73C246.441 249.049 245.793 248.252 245.28 247.37C246.915 248.591 248.341 250.07 249.5 251.75V251.73Z" fill="#263238"/>
<path d="M362.85 247.45C362.147 248.374 361.279 249.161 360.29 249.77C359.396 250.545 358.416 251.216 357.37 251.77C358.071 250.847 358.935 250.061 359.92 249.45C360.815 248.671 361.798 248 362.85 247.45V247.45Z" fill="#263238"/>
<path d="M362.64 280.82C361.604 280.296 360.65 279.622 359.81 278.82C358.876 278.164 358.053 277.364 357.37 276.45C358.405 276.977 359.358 277.651 360.2 278.45C361.134 279.106 361.957 279.906 362.64 280.82Z" fill="#263238"/>
<path d="M357.37 276.43C357.361 276.283 357.361 276.137 357.37 275.99C357.37 275.69 357.37 275.28 357.37 274.74C357.37 273.62 357.37 272 357.37 269.89C357.37 265.67 357.32 259.51 357.27 251.73L357.45 251.88L249.92 251.97L250.21 251.73C250.21 260.22 250.21 268.5 250.21 276.43L249.92 276.24L326.57 276.35L349.13 276.42H355.21H356.79H357.34H356.82H355.27H349.27L326.78 276.49L249.94 276.59H249.67V276.36C249.67 268.43 249.67 260.15 249.67 251.66V251.42H249.92L357.33 251.52H357.5V251.66C357.5 259.48 357.42 265.66 357.4 269.91C357.4 272 357.4 273.61 357.4 274.72C357.4 275.25 357.4 275.66 357.4 275.95C357.4 276.24 357.37 276.43 357.37 276.43Z" fill="#263238"/>
<path d="M313.56 261.8C312.74 261.31 311.859 260.93 310.94 260.67C310.1 260.418 309.227 260.29 308.35 260.29H301.18C299.083 260.264 297.051 261.012 295.47 262.39C295.138 262.682 294.849 263.019 294.61 263.39C294.275 263.894 294.121 264.496 294.171 265.099C294.222 265.702 294.475 266.269 294.89 266.71C295.82 267.53 297.7 267.13 297.89 265.95C297.925 266.349 298.039 266.738 298.224 267.093C298.41 267.449 298.663 267.764 298.971 268.021C299.278 268.278 299.633 268.473 300.016 268.592C300.398 268.712 300.801 268.756 301.2 268.72C302.006 268.639 302.771 268.321 303.397 267.807C304.023 267.293 304.484 266.605 304.72 265.83C304.754 266.514 305.036 267.161 305.512 267.653C305.989 268.144 306.628 268.445 307.31 268.5C307.999 268.544 308.681 268.339 309.232 267.923C309.783 267.506 310.165 266.905 310.31 266.23C311.19 267.32 312.5 268.34 314.01 267.87C314.426 267.738 314.802 267.502 315.103 267.186C315.403 266.869 315.619 266.482 315.73 266.06C316.13 264.31 315.01 262.72 313.56 261.8Z" fill="#E0E0E0"/>
<path d="M302.46 260.24C301.365 260.952 300.376 261.814 299.52 262.8C298.798 263.857 298.239 265.017 297.86 266.24C297.79 266.24 297.75 265.78 297.86 265.07C298.074 264.139 298.487 263.266 299.07 262.51C299.666 261.737 300.419 261.1 301.28 260.64C301.631 260.405 302.038 260.267 302.46 260.24V260.24Z" fill="#263238"/>
<path d="M305.21 260.55C305.376 261.439 305.376 262.351 305.21 263.24C305.187 264.149 305 265.047 304.66 265.89C304.48 264.999 304.48 264.081 304.66 263.19C304.672 262.283 304.859 261.386 305.21 260.55V260.55Z" fill="#263238"/>
<path d="M308.67 260.47C308.67 260.42 309.07 260.56 309.5 261.01C310.027 261.596 310.375 262.322 310.5 263.1C310.621 263.848 310.621 264.611 310.5 265.36C310.42 265.93 310.32 266.27 310.25 266.27C310.18 266.27 310.15 265.91 310.14 265.34C310.147 264.617 310.094 263.894 309.98 263.18C309.868 262.463 309.598 261.78 309.19 261.18C308.92 260.76 308.62 260.53 308.67 260.47Z" fill="#263238"/>
<path d="M382.43 230.35H224.77V242.76H382.43V230.35Z" fill="#455A64"/>
<path d="M382.44 242.77C382.44 242.77 382.44 242.49 382.44 241.95C382.44 241.41 382.44 240.61 382.44 239.57C382.44 237.47 382.44 234.38 382.38 230.35L382.48 230.45L224.82 230.62L225.08 230.35V242.77L224.82 242.51L336.66 242.62L370.2 242.7H379.3H381.67H382.49H381.7H379.32H370.32L336.84 242.78L224.84 242.89H224.59V242.63C224.59 238.68 224.59 234.47 224.59 230.21V229.95H224.86L382.52 230.12H382.61V230.21C382.61 234.27 382.61 237.38 382.56 239.49C382.56 240.49 382.56 241.3 382.56 241.84C382.56 242.38 382.44 242.77 382.44 242.77Z" fill="#263238"/>
<path d="M203.98 231.99C203.842 231.383 203.822 230.755 203.92 230.14C204.19 227.148 205.358 224.307 207.27 221.99C207.632 221.485 208.087 221.054 208.61 220.72C205.987 223.937 204.376 227.858 203.98 231.99V231.99Z" fill="#263238"/>
<path d="M198.78 230.54C198.709 229.828 198.753 229.108 198.91 228.41C199.198 226.711 199.698 225.054 200.4 223.48C201.097 221.901 201.994 220.419 203.07 219.07C203.475 218.481 203.98 217.967 204.56 217.55C203.161 219.49 201.927 221.544 200.87 223.69C199.984 225.911 199.285 228.203 198.78 230.54V230.54Z" fill="#263238"/>
<path d="M393.5 243.74C393.4 243.74 393.5 242.4 393.34 240.27C393.134 237.495 392.569 234.759 391.66 232.13C390.733 229.506 389.465 227.015 387.89 224.72C386.68 222.96 385.78 221.97 385.89 221.91C386 221.85 386.16 222.11 386.58 222.54C387.173 223.17 387.724 223.838 388.23 224.54C391.604 229.097 393.511 234.573 393.7 240.24C393.737 241.094 393.717 241.949 393.64 242.8C393.632 243.118 393.585 243.434 393.5 243.74Z" fill="#263238"/>
<path d="M398.7 245.42C398.61 245.42 398.61 243.69 398.3 240.93C397.485 233.727 394.984 226.817 391 220.76C389.47 218.44 388.36 217.12 388.43 217.06C388.744 217.319 389.026 217.615 389.27 217.94C389.985 218.772 390.653 219.643 391.27 220.55C395.476 226.566 398.019 233.586 398.64 240.9C398.738 242 398.774 243.105 398.75 244.21C398.78 244.614 398.763 245.02 398.7 245.42V245.42Z" fill="#263238"/>
<path d="M353.18 418.8C356.68 417.24 360.43 414.54 359.92 411.07C359.47 407.92 355.75 406.07 352.39 405.07C348.326 403.84 344.148 403.026 339.92 402.64C338.838 402.616 337.768 402.403 336.76 402.01C336.285 401.832 335.881 401.503 335.612 401.072C335.343 400.642 335.222 400.135 335.27 399.63C335.58 398.32 337.44 397.78 338.1 396.57C338.328 395.965 338.334 395.299 338.118 394.689C337.902 394.08 337.478 393.567 336.92 393.24C335.72 392.513 334.375 392.059 332.98 391.91C321.829 389.947 310.429 389.863 299.25 391.66C297.14 392 294.76 392.59 293.83 394.32C293.01 395.83 293.64 397.63 294.28 399.21C290.823 399.51 287.346 398.961 284.15 397.61L272.02 401.98C273.345 402.457 274.478 403.354 275.246 404.535C276.013 405.716 276.373 407.115 276.27 408.52C276.008 409.929 275.311 411.22 274.278 412.214C273.246 413.207 271.928 413.853 270.51 414.06C269.06 414.3 267.51 414.15 266.16 414.64C264.81 415.13 263.75 416.73 264.65 417.77C265.38 418.61 266.84 418.52 267.86 419.08C269.56 420.03 269.26 422.5 267.86 423.76C266.46 425.02 264.36 425.44 262.44 425.93C260.52 426.42 258.44 427.19 257.53 428.78C256.53 430.56 257.29 432.85 258.86 434.27C260.589 435.633 262.625 436.553 264.79 436.95C269.456 438.111 274.266 438.592 279.07 438.38C281.07 438.3 283.15 438.11 284.97 438.84C286.79 439.57 288.12 441.64 287.12 443.18C286.12 444.72 283.69 444.91 282.82 446.43C281.74 448.31 283.94 450.37 286.02 451.43C295.1 455.93 306.35 455.9 316.3 453.21C318.109 452.827 319.814 452.059 321.3 450.96C322.67 449.8 323.48 447.96 322.79 446.38C322.32 445.3 321.22 444.43 321.13 443.28C321.04 442.13 322.13 441.02 323.38 440.59C324.683 440.241 326.036 440.123 327.38 440.24C333.18 440.342 338.972 439.771 344.64 438.54C347.72 437.87 350.92 436.9 352.94 434.71C354.96 432.52 355.15 428.78 352.57 427.14C351.29 426.32 349.49 426.08 348.63 424.91C348.273 424.296 348.145 423.575 348.269 422.875C348.394 422.176 348.763 421.543 349.31 421.09C350.454 420.103 351.764 419.327 353.18 418.8V418.8Z" fill="#EBEBEB"/>
<path d="M363.31 434.37C365.865 436.996 367.533 440.357 368.08 443.98C364.72 443.19 360.39 441.21 358.08 438.66C355.753 436.081 354.258 432.861 353.79 429.42C357.403 430.033 360.733 431.764 363.31 434.37V434.37Z" fill="#455A64"/>
<path d="M364.47 439.98C364.373 439.808 364.262 439.645 364.14 439.49C363.93 439.18 363.6 438.75 363.14 438.22C362.04 436.84 360.854 435.531 359.59 434.3C358.332 433.069 356.996 431.92 355.59 430.86C355.05 430.45 354.59 430.14 354.29 429.93C354.132 429.814 353.965 429.71 353.79 429.62C353.928 429.757 354.079 429.881 354.24 429.99C354.55 430.22 354.98 430.55 355.51 430.99C356.57 431.83 358 432.99 359.51 434.46C361.02 435.93 362.23 437.29 363.1 438.32C363.53 438.84 363.88 439.26 364.1 439.56C364.211 439.71 364.335 439.851 364.47 439.98V439.98Z" fill="#263238"/>
<path d="M348.73 436.24C350.278 439.042 350.905 442.261 350.52 445.44C347.88 443.99 344.69 441.33 343.33 438.64C341.968 435.928 341.452 432.869 341.85 429.86C344.758 431.21 347.165 433.442 348.73 436.24Z" fill="#455A64"/>
<path d="M348.41 441.24C348.368 441.073 348.314 440.91 348.25 440.75C348.14 440.44 347.96 440 347.73 439.45C346.511 436.598 344.939 433.91 343.05 431.45C342.68 430.99 342.38 430.62 342.16 430.37C342.057 430.231 341.94 430.104 341.81 429.99C341.896 430.139 341.997 430.28 342.11 430.41C342.31 430.67 342.6 431.05 342.95 431.53C343.65 432.48 344.57 433.82 345.49 435.37C346.41 436.92 347.12 438.37 347.62 439.45C347.86 439.99 348.05 440.45 348.19 440.73C348.245 440.907 348.319 441.078 348.41 441.24V441.24Z" fill="#263238"/>
<path d="M353.92 426.01C356.28 423.848 357.897 420.996 358.54 417.86C355.54 418.39 351.7 419.86 349.54 422.02C347.388 424.16 345.932 426.899 345.36 429.88C348.55 429.525 351.546 428.17 353.92 426.01V426.01Z" fill="#455A64"/>
<path d="M355.2 421.17C355.114 421.319 355.013 421.46 354.9 421.59C354.69 421.85 354.38 422.21 353.99 422.65C352.961 423.8 351.862 424.885 350.7 425.9C349.532 426.906 348.306 427.845 347.03 428.71C346.54 429.04 346.13 429.29 345.85 429.46C345.705 429.557 345.551 429.641 345.39 429.71C345.521 429.595 345.661 429.491 345.81 429.4C346.08 429.22 346.48 428.95 346.96 428.61C347.96 427.93 349.23 426.95 350.59 425.77C351.95 424.59 353.09 423.43 353.9 422.57L354.84 421.57C355.07 421.3 355.19 421.17 355.2 421.17Z" fill="#263238"/>
<path d="M367.04 423.32C368.717 420.677 369.522 417.575 369.34 414.45C366.67 415.71 363.4 418.12 361.92 420.66C360.413 423.217 359.716 426.169 359.92 429.13C362.847 427.993 365.339 425.959 367.04 423.32V423.32Z" fill="#455A64"/>
<path d="M367.02 418.43C366.975 418.592 366.914 418.749 366.84 418.9C366.71 419.19 366.51 419.62 366.25 420.13C365.575 421.478 364.814 422.781 363.97 424.03C363.125 425.277 362.207 426.472 361.22 427.61C360.84 428.04 360.52 428.39 360.29 428.61C360.184 428.737 360.063 428.851 359.93 428.95C360.025 428.813 360.128 428.683 360.24 428.56C360.46 428.32 360.76 427.97 361.13 427.56C362.09 426.41 362.991 425.212 363.83 423.97C364.83 422.51 365.6 421.13 366.15 420.11L366.78 418.9C366.85 418.738 366.93 418.581 367.02 418.43Z" fill="#263238"/>
<path d="M315.33 424.98H315.47L315.88 425.1L317.45 425.56L318.58 425.91L319.95 426.27C320.95 426.53 322.03 426.84 323.27 427.11L325.22 427.56C325.89 427.71 326.61 427.84 327.34 427.98C328.8 428.29 330.34 428.52 332.04 428.79C335.651 429.307 339.285 429.64 342.93 429.79C346.572 429.889 350.217 429.795 353.85 429.51C355.53 429.33 357.12 429.2 358.6 428.96C359.33 428.85 360.05 428.76 360.73 428.64L362.73 428.28C363.98 428.07 365.1 427.78 366.08 427.56L367.45 427.24L368.59 426.93L370.17 426.5L370.59 426.39H370.73L370.59 426.44L370.19 426.57L368.62 427.04L367.48 427.38L366.11 427.72C365.11 427.95 364.01 428.25 362.76 428.47L360.76 428.85C360.07 428.98 359.35 429.07 358.61 429.18C357.13 429.43 355.54 429.57 353.86 429.76C350.218 430.059 346.563 430.156 342.91 430.05C339.258 429.906 335.617 429.572 332 429.05C330.34 428.77 328.75 428.54 327.29 428.22L325.17 427.78L323.22 427.32C321.98 427.04 320.88 426.71 319.9 426.44L318.54 426.05L317.41 425.69L315.86 425.18L315.45 425.04L315.33 424.98Z" fill="#263238"/>
<path d="M386.26 415.78C386.769 415.692 387.293 415.729 387.784 415.89C388.276 416.05 388.721 416.328 389.08 416.7C389.317 417.117 389.42 417.597 389.375 418.074C389.331 418.552 389.14 419.004 388.83 419.37C388.195 420.089 387.415 420.666 386.54 421.06C388.6 420.383 390.839 420.508 392.81 421.41C393.47 421.71 394.16 422.25 394.08 422.96C394.018 423.206 393.905 423.437 393.748 423.637C393.592 423.837 393.395 424.001 393.17 424.12C391.54 425.292 389.752 426.228 387.86 426.9C388.789 427.237 389.625 427.789 390.3 428.51C390.625 428.877 390.814 429.345 390.834 429.835C390.854 430.326 390.704 430.808 390.41 431.2C390.009 431.566 389.514 431.812 388.98 431.91C385.632 432.801 382.116 432.859 378.74 432.08C376.922 431.771 375.244 430.904 373.94 429.6C372.72 428.23 371.57 426.23 372.61 424.73L372.39 425.19C373.647 422.523 375.598 420.243 378.038 418.587C380.478 416.932 383.317 415.962 386.26 415.78V415.78Z" fill="#CD8802"/>
<path d="M372.24 426.24H372.4L372.86 426.14C373.05 426.09 373.29 426.03 373.58 425.98C373.87 425.93 374.18 425.85 374.58 425.79C374.98 425.73 375.33 425.66 375.76 425.62C376.19 425.58 376.63 425.52 377.11 425.47C378.148 425.392 379.19 425.375 380.23 425.42C381.272 425.472 382.31 425.582 383.34 425.75C383.81 425.84 384.26 425.92 384.67 426.02C385.08 426.12 385.47 426.22 385.82 426.32C386.17 426.42 386.48 426.52 386.76 426.6L387.46 426.84L387.9 427H388.06L387.91 426.93L387.48 426.75C387.29 426.67 387.06 426.58 386.79 426.49C386.52 426.4 386.2 426.28 385.85 426.18C385.5 426.08 385.12 425.97 384.7 425.87C384.28 425.77 383.83 425.68 383.36 425.59C382.329 425.405 381.287 425.288 380.24 425.24C379.193 425.198 378.145 425.219 377.1 425.3C376.62 425.35 376.16 425.39 375.74 425.46C375.32 425.53 374.92 425.59 374.56 425.66C374.2 425.73 373.88 425.8 373.56 425.86L372.84 426.04L372.39 426.18L372.24 426.24Z" fill="#263238"/>
<path d="M379.49 425.32L379.8 425.19L380.63 424.78C381.33 424.42 382.28 423.9 383.31 423.29C384.34 422.68 385.23 422.07 385.87 421.62L386.63 421.08C386.724 421.016 386.811 420.942 386.89 420.86C386.785 420.908 386.685 420.965 386.59 421.03L385.82 421.54C385.16 421.97 384.25 422.54 383.23 423.17C382.21 423.8 381.23 424.31 380.59 424.69L379.78 425.14C379.677 425.188 379.579 425.249 379.49 425.32V425.32Z" fill="#263238"/>
<g opacity="0.3">
<path d="M387.86 426.9C387.86 426.9 384.01 423.81 379.91 425.27C382.634 425.352 385.324 425.903 387.86 426.9V426.9Z" fill="black"/>
</g>
<path d="M303.66 422.84L304.17 423.75L309.27 424.89L306.27 433.36L307.91 434.62L315.22 434.34L312.16 438.24L313.81 439.14L319.55 437.98L320.43 435.18L314.69 429.79C314.69 429.79 311.35 421.91 311.21 421.85C311.07 421.79 306.84 421.52 306.84 421.52L303.66 422.84Z" fill="#CD8802"/>
<path opacity="0.3" d="M303.66 422.84L304.17 423.75L309.27 424.89L306.27 433.36L307.91 434.62L315.22 434.34L312.16 438.24L313.81 439.14L319.55 437.98L320.43 435.18L314.69 429.79C314.69 429.79 311.35 421.91 311.21 421.85C311.07 421.79 306.84 421.52 306.84 421.52L303.66 422.84Z" fill="black"/>
<path d="M303.66 420L313.58 405.24C313.58 405.24 334.85 412.41 334.43 437.62L317.83 440.46L319.04 436.81L312.16 438.24L314.59 432.98L306.29 433.38L309.53 422.86H303.66V420Z" fill="#CD8802"/>
<path d="M265.39 443.47L263.19 443.06C260.568 442.392 257.809 442.489 255.24 443.34C254.547 443.522 253.906 443.864 253.37 444.34C253.111 444.595 252.927 444.917 252.837 445.269C252.747 445.621 252.755 445.992 252.86 446.34C253.21 447.24 254.3 447.57 255.26 447.73C258.019 448.191 260.829 448.269 263.61 447.96C265.02 447.81 266.72 447.27 266.96 445.88C266.994 445.363 266.859 444.848 266.576 444.414C266.293 443.979 265.877 443.648 265.39 443.47V443.47Z" fill="#EBEBEB"/>
<path d="M281.06 417.69L280.24 414.29L276.54 410.71L282.04 406.51V404.51L277.74 399.9H282.74V397.24L285.34 397.03L279.34 393.44L273.84 398.34L271.04 401.14C271.04 401.14 275.74 406.33 275.74 406.63C275.74 406.93 274.17 409.49 274.21 409.81C273.838 410.599 273.378 411.343 272.84 412.03L273.14 413.82L281.06 417.69Z" fill="#CD8802"/>
<path opacity="0.3" d="M281.06 417.69L280.24 414.29L276.54 410.71L282.04 406.51V404.51L277.74 399.9H282.74V397.24L285.34 397.03L279.34 393.44L273.84 398.34L271.04 401.14C271.04 401.14 275.74 406.33 275.74 406.63C275.74 406.93 274.17 409.49 274.21 409.81C273.838 410.599 273.378 411.343 272.84 412.03L273.14 413.82L281.06 417.69Z" fill="black"/>
<path d="M229.43 386.79C229.43 386.79 234.96 371.17 250.11 370.95C254.735 370.939 259.188 372.704 262.55 375.88L285.33 396.98L281.06 395.66L281.38 399.94H275.47L282.04 406.51L275.14 411.78L281.06 417.69C281.06 417.69 270.34 417.35 261 417.69C251.24 418.06 240.28 421.64 233.38 415.06C226.48 408.48 225.18 397.17 229.43 386.79Z" fill="#CD8802"/>
<path d="M263.65 377.31C263.665 377.446 263.665 377.584 263.65 377.72C263.65 378.03 263.6 378.43 263.56 378.93C263.46 380.04 263.32 381.59 263.15 383.58V383.69H257.5L257.67 383.51C257.94 385.4 258.24 387.51 258.57 389.86V390.06H258.37L252.82 390.75L253 390.46C253.56 392.18 254.15 393.98 254.69 395.9L254.79 396.27C254.834 396.423 254.854 396.581 254.85 396.74V396.74C254.836 396.777 254.815 396.81 254.788 396.838C254.76 396.865 254.727 396.886 254.69 396.9H254.55H254.38L254.02 397.01L252.59 397.51L249.65 398.62L249.77 398.26L252.77 403.26L252.89 403.46L252.7 403.6L248.17 406.98V406.62L251.65 411.26L251.79 411.44L251.63 411.6L248.22 415.06V414.68L252.39 417.92L251.98 418.16C251.178 412.497 251.556 406.73 253.09 401.22C254.304 396.826 256.211 392.653 258.74 388.86C260.413 386.356 262.351 384.039 264.52 381.95C265.28 381.22 265.9 380.68 266.32 380.33L266.81 379.94L266.99 379.82C266.99 379.82 266.79 380.02 266.39 380.4C265.99 380.78 265.39 381.33 264.65 382.07C262.539 384.205 260.652 386.55 259.02 389.07C256.552 392.851 254.699 396.999 253.53 401.36C252.05 406.812 251.709 412.511 252.53 418.1L252.62 418.73L252.12 418.34L247.92 415.24L247.69 415.06L247.89 414.85L251.3 411.38V411.72C250.1 410.13 248.93 408.56 247.82 407.08L247.66 406.87L247.87 406.71L252.41 403.34L252.34 403.67C251.34 401.95 250.29 400.27 249.34 398.67L249.19 398.41L249.46 398.31L252.41 397.21L253.87 396.71L254.24 396.6H254.44H254.58H254.71C254.58 397.01 254.71 396.71 254.65 396.8H254.57C254.39 396.8 254.49 396.8 254.46 396.8V396.69V396.52L254.37 396.16C253.85 394.26 253.26 392.45 252.72 390.74L252.64 390.49H252.9L258.45 389.84L258.28 390.06C257.98 387.73 257.69 385.58 257.44 383.69V383.5H257.63L263.16 383.58L263.03 383.69C263.26 381.69 263.44 380.16 263.56 379.06C263.63 378.56 263.68 378.16 263.72 377.85C263.662 377.676 263.638 377.493 263.65 377.31V377.31Z" fill="#263238"/>
<path d="M263.65 377.31C263.24 377.763 262.802 378.19 262.34 378.59C261.49 379.4 260.28 380.59 258.89 382.19C257.256 384.033 255.753 385.988 254.39 388.04C252.71 390.539 251.325 393.223 250.26 396.04C249.281 398.887 248.611 401.83 248.26 404.82C247.947 407.264 247.786 409.726 247.78 412.19C247.78 414.29 247.86 416 247.96 417.19C248.042 417.796 248.078 418.408 248.07 419.02C248.016 418.871 247.98 418.717 247.96 418.56C247.96 418.25 247.82 417.8 247.76 417.21C247.544 415.552 247.427 413.882 247.41 412.21C247.363 409.728 247.49 407.245 247.79 404.78C248.118 401.747 248.789 398.762 249.79 395.88C250.871 393.029 252.287 390.316 254.01 387.8C255.403 385.742 256.951 383.793 258.64 381.97C259.771 380.738 260.97 379.57 262.23 378.47C262.67 378.08 263.04 377.8 263.23 377.61C263.42 377.42 263.64 377.29 263.65 377.31Z" fill="#263238"/>
<path d="M261.64 375.09C261.183 375.552 260.699 375.986 260.19 376.39C258.867 377.55 257.611 378.785 256.43 380.09C252.557 384.42 249.592 389.484 247.71 394.98C245.805 400.469 244.993 406.279 245.32 412.08C245.418 413.836 245.611 415.585 245.9 417.32C246.038 417.954 246.138 418.595 246.2 419.24C246.131 419.086 246.077 418.925 246.04 418.76C245.96 418.44 245.82 417.97 245.7 417.36C245.333 415.625 245.083 413.868 244.95 412.1C244.517 406.24 245.286 400.353 247.21 394.8C249.112 389.229 252.161 384.119 256.16 379.8C257.374 378.507 258.677 377.301 260.06 376.19C260.54 375.79 260.95 375.52 261.21 375.32C261.344 375.227 261.488 375.15 261.64 375.09V375.09Z" fill="#263238"/>
<path d="M268.46 381.36C268.118 381.772 267.747 382.16 267.35 382.52C266.63 383.26 265.61 384.35 264.44 385.78C258.396 393.314 254.93 402.589 254.55 412.24C254.48 414.09 254.55 415.58 254.55 416.61C254.585 417.146 254.585 417.684 254.55 418.22C254.496 418.09 254.465 417.951 254.46 417.81C254.46 417.54 254.35 417.14 254.31 416.63C254.157 415.169 254.094 413.699 254.12 412.23C254.228 407.374 255.175 402.573 256.92 398.04C258.599 393.48 261.063 389.25 264.2 385.54C265.151 384.425 266.17 383.37 267.25 382.38C267.63 382.03 267.95 381.77 268.16 381.6C268.37 381.43 268.45 381.34 268.46 381.36Z" fill="#263238"/>
<path d="M257.03 374.59C257.03 374.68 255.73 374.02 253.53 373.54C250.675 372.895 247.703 372.998 244.9 373.839C242.097 374.68 239.558 376.23 237.53 378.34C235.96 379.95 235.27 381.2 235.19 381.14C235.294 380.822 235.446 380.522 235.64 380.25C236.109 379.477 236.655 378.753 237.27 378.09C239.285 375.842 241.882 374.195 244.774 373.328C247.666 372.462 250.741 372.411 253.66 373.18C254.537 373.402 255.391 373.706 256.21 374.09C256.506 374.217 256.782 374.386 257.03 374.59Z" fill="white"/>
<path d="M271.39 385.88C271.31 386 270.71 385.73 270.04 385.29C269.37 384.85 268.89 384.38 268.97 384.29C269.05 384.2 269.66 384.44 270.33 384.88C271 385.32 271.47 385.76 271.39 385.88Z" fill="white"/>
<path d="M279.3 399.11C279.3 399.25 278.7 399.33 277.99 399.29C277.28 399.25 276.71 399.09 276.72 398.95C276.73 398.81 277.31 398.72 278.02 398.77C278.73 398.82 279.31 398.97 279.3 399.11Z" fill="white"/>
<path d="M276.39 409.24C276.47 409.36 276.17 409.68 275.72 409.94C275.27 410.2 274.85 410.33 274.78 410.2C274.71 410.07 275.01 409.76 275.45 409.5C275.89 409.24 276.32 409.15 276.39 409.24Z" fill="white"/>
<path opacity="0.3" d="M314.4 406.79C314.4 406.79 310.11 425.55 333.58 436.79C333.274 430.552 331.343 424.502 327.979 419.24C324.615 413.977 319.934 409.686 314.4 406.79Z" fill="black"/>
<path d="M333.58 436.14C333.58 436.14 333.58 435.88 333.48 435.41C333.38 434.94 333.32 434.22 333.15 433.33C332.652 430.792 331.922 428.305 330.97 425.9C330.32 424.234 329.586 422.601 328.77 421.01C327.852 419.188 326.739 417.471 325.45 415.89C322.435 412.278 318.685 409.35 314.45 407.3L314.81 407.11L314.72 407.7C314.348 410.129 314.446 412.608 315.01 415C315.53 417.236 316.333 419.397 317.4 421.43C319.145 424.92 321.449 428.102 324.22 430.85C326.114 432.673 328.271 434.2 330.62 435.38C331.45 435.8 332.12 436.09 332.57 436.28C332.805 436.364 333.032 436.468 333.25 436.59C333.004 436.539 332.763 436.465 332.53 436.37C331.85 436.135 331.182 435.864 330.53 435.56C328.118 434.439 325.9 432.94 323.96 431.12C321.119 428.372 318.753 425.172 316.96 421.65C315.865 419.583 315.039 417.386 314.5 415.11C313.914 412.657 313.809 410.113 314.19 407.62L314.28 407.02L314.34 406.68L314.64 406.83C318.951 408.907 322.762 411.892 325.81 415.58C327.108 417.202 328.228 418.958 329.15 420.82C329.958 422.429 330.676 424.081 331.3 425.77C332.214 428.204 332.884 430.723 333.3 433.29C333.44 434.2 333.51 434.91 333.54 435.4C333.584 435.644 333.597 435.893 333.58 436.14V436.14Z" fill="#263238"/>
<path d="M327.14 436.82C326.714 436.671 326.305 436.476 325.92 436.24C325.465 435.986 325.027 435.702 324.61 435.39C324.039 435.006 323.488 434.592 322.96 434.15C322.303 433.628 321.676 433.071 321.08 432.48C320.41 431.87 319.78 431.13 319.08 430.38C317.668 428.682 316.426 426.85 315.37 424.91C314.347 422.956 313.52 420.906 312.9 418.79C312.65 417.79 312.39 416.87 312.25 415.97C312.091 415.15 311.977 414.322 311.91 413.49C311.838 412.802 311.801 412.111 311.8 411.42C311.769 410.9 311.769 410.38 311.8 409.86C311.801 409.413 311.848 408.967 311.94 408.53C312.05 408.53 311.94 410.43 312.25 413.45C312.35 414.2 312.46 415.02 312.66 415.89C312.86 416.76 313.08 417.68 313.34 418.65C313.977 420.722 314.804 422.73 315.81 424.65C316.85 426.556 318.062 428.364 319.43 430.05C320.09 430.8 320.7 431.54 321.34 432.15C321.98 432.76 322.58 433.35 323.15 433.85C325.54 435.8 327.2 436.73 327.14 436.82Z" fill="#263238"/>
<path d="M308.79 413.68C308.041 416.059 306.629 418.175 304.72 419.78C305.314 418.718 305.983 417.699 306.72 416.73C307.342 415.669 308.033 414.65 308.79 413.68Z" fill="white"/>
<path d="M307.82 431.09C307.795 430.397 307.946 429.709 308.26 429.09C308.64 428.09 309.06 427.25 309.19 427.3C309.32 427.35 309.13 428.23 308.75 429.3C308.37 430.37 307.92 431.14 307.82 431.09Z" fill="white"/>
<path d="M314.21 436.34C314.09 436.26 314.14 435.97 314.32 435.7C314.5 435.43 314.75 435.27 314.87 435.35C314.99 435.43 314.94 435.72 314.76 435.99C314.58 436.26 314.33 436.42 314.21 436.34Z" fill="white"/>
<path d="M316.62 422C316.086 421.489 315.643 420.89 315.31 420.23C314.396 418.673 313.721 416.988 313.31 415.23C312.896 413.492 312.741 411.703 312.85 409.92C312.859 409.178 312.983 408.443 313.22 407.74C313.136 410.212 313.337 412.685 313.82 415.11C314.476 417.51 315.416 419.823 316.62 422Z" fill="white"/>
<path d="M290.49 425.1V428.1C290.49 428.1 286.79 437.15 286.6 437.21C286.41 437.27 280.3 436.03 280.3 436.03L280.06 434.28L290.49 425.1Z" fill="#CD8802"/>
<path opacity="0.3" d="M290.49 425.1V428.1C290.49 428.1 286.79 437.15 286.6 437.21C286.41 437.27 280.3 436.03 280.3 436.03L280.06 434.28L290.49 425.1Z" fill="black"/>
<path d="M286.25 421.24C285.68 421.7 278.91 425.71 279.03 426.05C279.15 426.39 280.03 434.32 280.03 434.32C280.03 434.32 286.03 436.14 286.22 435.68C286.41 435.22 290.46 425.13 290.46 425.13L286.25 421.24Z" fill="#CD8802"/>
<path d="M285.33 409.26V413.24L286.16 416.54L300.53 417.22L300.85 416.07L285.33 409.26Z" fill="#CD8802"/>
<path opacity="0.3" d="M285.33 409.26V413.24L286.16 416.54L300.53 417.22L300.85 416.07L285.33 409.26Z" fill="black"/>
<path d="M285.33 409.26L286.12 414.1L300.85 416.07L294.42 406.79L285.33 409.26Z" fill="#CD8802"/>
<path d="M297.33 401.94L297.61 403.35L303.24 406.79L309.68 406.55L312.12 402.29L303.97 401.04L297.33 401.94Z" fill="#CD8802"/>
<path opacity="0.3" d="M297.33 401.94L297.61 403.35L303.24 406.79L309.68 406.55L312.12 402.29L303.97 401.04L297.33 401.94Z" fill="black"/>
<path d="M306.38 396.2L297.33 401.94L302.72 405.27H309.25L312.12 402.29L306.38 396.2Z" fill="#CD8802"/>
<path d="M344.55 413.34C346.957 413.749 349.175 414.903 350.89 416.64C348.539 417.654 345.959 418.016 343.42 417.69C341.192 417.251 339.153 416.137 337.58 414.5C339.722 413.385 342.162 412.979 344.55 413.34V413.34Z" fill="#455A64"/>
<path d="M347.38 415.9C347.261 415.842 347.137 415.795 347.01 415.76L346.01 415.46C344.875 415.151 343.723 414.911 342.56 414.74C341.397 414.577 340.224 414.487 339.05 414.47C338.6 414.47 338.24 414.47 337.99 414.47H337.6H337.99H339.05C340.218 414.513 341.383 414.617 342.54 414.78C343.9 414.98 345.11 415.24 345.98 415.46C346.42 415.56 346.77 415.66 346.98 415.72C347.105 415.797 347.24 415.857 347.38 415.9V415.9Z" fill="#263238"/>
<path d="M351.07 405.05C353.474 405.459 355.689 406.613 357.4 408.35C355.05 409.365 352.469 409.727 349.93 409.4C347.671 408.923 345.608 407.777 344.01 406.11C346.194 405.025 348.664 404.654 351.07 405.05V405.05Z" fill="#455A64"/>
<path d="M353.92 407.61C353.801 407.552 353.678 407.505 353.55 407.47L352.55 407.17C351.42 406.856 350.271 406.616 349.11 406.45C347.946 406.29 346.774 406.197 345.6 406.17H344.53C344.4 406.158 344.27 406.158 344.14 406.17H344.53H345.59C346.761 406.213 347.929 406.317 349.09 406.48C350.44 406.68 351.66 406.94 352.53 407.16L353.53 407.42C353.652 407.499 353.783 407.563 353.92 407.61V407.61Z" fill="#263238"/>
<path d="M347.59 396.49C347.06 394.11 345.797 391.956 343.98 390.33C343.082 392.726 342.844 395.32 343.29 397.84C343.883 400.074 345.13 402.079 346.87 403.6C347.849 401.364 348.101 398.877 347.59 396.49V396.49Z" fill="#455A64"/>
<path d="M344.92 393.8C344.981 393.915 345.031 394.036 345.07 394.16C345.17 394.39 345.29 394.74 345.43 395.16C345.792 396.278 346.086 397.416 346.31 398.57C346.535 399.722 346.686 400.888 346.76 402.06C346.76 402.51 346.76 402.88 346.76 403.13C346.777 403.259 346.777 403.391 346.76 403.52C346.76 403.52 346.76 403.38 346.76 403.13C346.76 402.88 346.76 402.52 346.68 402.07C346.47 399.738 346.025 397.433 345.35 395.19L345.04 394.19C344.987 394.064 344.947 393.934 344.92 393.8V393.8Z" fill="#263238"/>
<path d="M340.61 404.14C340.084 401.758 338.821 399.603 337 397.98C336.1 400.376 335.865 402.971 336.32 405.49C336.912 407.726 338.167 409.731 339.92 411.24C340.889 409.004 341.131 406.52 340.61 404.14V404.14Z" fill="#455A64"/>
<path d="M337.92 401.45C337.99 401.562 338.044 401.683 338.08 401.81C338.17 402.04 338.29 402.38 338.44 402.81C339.168 405.046 339.615 407.364 339.77 409.71C339.77 410.16 339.77 410.52 339.77 410.78C339.781 410.91 339.781 411.04 339.77 411.17C339.76 411.04 339.76 410.91 339.77 410.78C339.77 410.53 339.72 410.16 339.68 409.72C339.584 408.552 339.423 407.39 339.2 406.24C338.94 404.9 338.62 403.7 338.36 402.84C338.23 402.41 338.12 402.06 338.04 401.84C337.96 401.62 337.92 401.45 337.92 401.45Z" fill="#263238"/>
<path d="M334.67 421.12C334.686 421.023 334.716 420.928 334.76 420.84C334.82 420.64 334.92 420.37 335.04 420.03C335.1 419.86 335.17 419.67 335.24 419.46C335.31 419.25 335.42 419.02 335.52 418.78C335.73 418.3 335.94 417.78 336.23 417.15C336.38 416.85 336.52 416.54 336.68 416.21C336.84 415.88 337.02 415.56 337.2 415.21C337.55 414.52 337.99 413.81 338.44 413.06C339.447 411.457 340.556 409.921 341.76 408.46C343.007 407.018 344.343 405.655 345.76 404.38C346.42 403.81 347.04 403.26 347.66 402.79C347.97 402.56 348.26 402.31 348.55 402.1L349.39 401.5C349.92 401.11 350.44 400.8 350.88 400.5L351.49 400.1L352.03 399.8L352.77 399.38C352.852 399.329 352.939 399.285 353.03 399.25L352.78 399.41L352.06 399.86L351.54 400.18L350.93 400.58C350.5 400.87 349.99 401.19 349.47 401.58L348.63 402.19C348.34 402.41 348.06 402.65 347.75 402.89C347.14 403.36 346.53 403.89 345.87 404.48C343.073 407.022 340.634 409.932 338.62 413.13C338.18 413.87 337.74 414.57 337.38 415.26C337.2 415.6 337.01 415.92 336.85 416.26L336.4 417.18C336.1 417.77 335.87 418.32 335.66 418.8L335.37 419.47L335.15 420.04L334.84 420.83C334.79 420.93 334.733 421.027 334.67 421.12Z" fill="#263238"/>
<path d="M354.81 395.71C356.934 394.506 359.383 394.002 361.81 394.27C360.628 396.541 358.856 398.451 356.68 399.8C354.626 400.857 352.302 401.271 350.01 400.99C351.015 398.769 352.695 396.921 354.81 395.71V395.71Z" fill="#455A64"/>
<path d="M358.62 395.91L358.25 396.04C358.01 396.13 357.67 396.26 357.25 396.45C356.177 396.925 355.135 397.466 354.13 398.07C353.123 398.676 352.155 399.344 351.23 400.07C350.88 400.35 350.6 400.58 350.41 400.75C350.22 400.92 350.12 401.01 350.13 401.02L350.44 400.79L351.29 400.14C352.01 399.6 353.02 398.89 354.19 398.14C355.195 397.538 356.229 396.987 357.29 396.49L358.29 396.05L358.62 395.91Z" fill="#263238"/>
<path d="M367.92 395.56C368.236 395.304 368.61 395.129 369.009 395.05C369.408 394.972 369.821 394.992 370.21 395.11C370.534 395.302 370.79 395.59 370.942 395.934C371.094 396.278 371.136 396.661 371.06 397.03C370.899 397.754 370.585 398.436 370.14 399.03C371.297 397.778 372.881 397.004 374.58 396.86C375.14 396.86 375.83 396.92 376.04 397.44C376.091 397.633 376.102 397.835 376.073 398.032C376.043 398.23 375.975 398.42 375.87 398.59C375.193 400.014 374.325 401.34 373.29 402.53C374.056 402.4 374.842 402.458 375.58 402.7C375.943 402.827 376.252 403.076 376.454 403.403C376.656 403.731 376.739 404.118 376.69 404.5C376.545 404.89 376.3 405.235 375.98 405.5C374.01 407.387 371.606 408.761 368.98 409.5C367.612 409.986 366.127 410.035 364.73 409.64C363.37 409.17 361.82 408.24 361.96 406.81V407.21C361.828 404.914 362.311 402.624 363.359 400.576C364.406 398.528 365.981 396.797 367.92 395.56V395.56Z" fill="#CD8802"/>
<path d="M362.31 408.09L362.42 408L362.69 407.76L363.12 407.37L363.71 406.87C363.93 406.69 364.18 406.5 364.45 406.3L365.33 405.68C366.011 405.232 366.715 404.822 367.44 404.45C368.172 404.07 368.927 403.736 369.7 403.45C370.06 403.33 370.4 403.21 370.7 403.12C371 403.03 371.33 402.95 371.6 402.88C371.87 402.81 372.13 402.76 372.36 402.72L372.93 402.61L373.29 402.55H373.42H373.29H372.92C372.729 402.57 372.538 402.6 372.35 402.64C372.12 402.64 371.86 402.72 371.59 402.78L370.68 403.01C370.35 403.1 370.01 403.21 369.68 403.33C368.9 403.616 368.139 403.95 367.4 404.33C366.67 404.706 365.962 405.123 365.28 405.58C364.97 405.8 364.67 406 364.41 406.21C364.15 406.42 363.89 406.61 363.67 406.79C363.45 406.97 363.26 407.15 363.09 407.3C362.92 407.45 362.78 407.59 362.67 407.71L362.41 407.97C362.34 408.05 362.31 408.08 362.31 408.09Z" fill="#263238"/>
<path d="M366.92 404.7C366.98 404.635 367.034 404.565 367.08 404.49C367.19 404.35 367.33 404.14 367.5 403.89C367.84 403.38 368.29 402.66 368.76 401.89C369.23 401.12 369.61 400.32 369.88 399.76C370.01 399.49 370.12 399.26 370.19 399.1C370.26 398.94 370.29 398.86 370.28 398.85L370.15 399.08C370.06 399.25 369.94 399.47 369.81 399.73C369.52 400.27 369.13 401.02 368.66 401.84C368.19 402.66 367.76 403.37 367.43 403.9L367.05 404.52C367 404.575 366.957 404.635 366.92 404.7V404.7Z" fill="#263238"/>
<g opacity="0.3">
<path d="M373.3 402.57C373.3 402.57 369.48 401.93 367.22 404.5C369.12 403.512 371.177 402.859 373.3 402.57V402.57Z" fill="black"/>
</g>
<path d="M136.6 53.64C138.38 50.64 137.43 46.53 134.98 44.05C132.368 41.6754 128.927 40.4221 125.4 40.56C121.914 40.7243 118.465 41.3429 115.14 42.4C113.931 40.7321 112.282 39.4326 110.378 38.6463C108.473 37.8599 106.388 37.6175 104.354 37.9462C102.32 38.2748 100.418 39.1615 98.8579 40.5075C97.2982 41.8535 96.1426 43.6061 95.52 45.57C94.3362 45.0624 93.0363 44.8878 91.7606 45.065C90.4848 45.2423 89.2817 45.7647 88.2812 46.5758C87.2807 47.3869 86.5208 48.4559 86.0835 49.6674C85.6462 50.8789 85.5482 52.1869 85.8 53.45L100.36 61.24L112.56 93.48C114.716 95.987 117.709 97.625 120.982 98.0889C124.256 98.5528 127.587 97.8109 130.354 96.0016C133.121 94.1922 135.136 91.4387 136.024 88.2539C136.912 85.069 136.612 81.67 135.18 78.69C136.252 77.9942 137.204 77.1297 138 76.13C139.471 75.5485 140.812 74.6795 141.944 73.5737C143.075 72.4679 143.975 71.1476 144.59 69.69C147.07 63.45 143.1 55.45 136.6 53.64Z" fill="#263238"/>
<path d="M116.72 113.77C116.52 108.77 116.37 105.39 116.37 105.43C116.37 105.47 126.01 103.32 127.37 90.52C128.04 84.16 127.2 73.83 126.23 65.4C125.36 57.82 119.84 48.74 112.29 49.93L88.92 57.13C86.63 57.49 85.92 59.48 86.09 61.8L85.92 62.89L88.92 99.17L88.71 114.65C89.24 121.55 96.29 127.59 103.21 127.65C105.022 127.673 106.82 127.327 108.494 126.633C110.168 125.939 111.683 124.911 112.947 123.613C114.211 122.314 115.197 120.772 115.846 119.079C116.495 117.387 116.792 115.581 116.72 113.77Z" fill="#FFBF9D"/>
<path d="M123.45 76.62C123.478 77.0445 123.339 77.463 123.062 77.7862C122.786 78.1094 122.394 78.3118 121.97 78.35C121.764 78.3765 121.554 78.3617 121.353 78.3065C121.153 78.2513 120.965 78.1567 120.801 78.0283C120.637 77.8999 120.501 77.7402 120.399 77.5585C120.298 77.3768 120.233 77.1768 120.21 76.97C120.185 76.5446 120.326 76.1261 120.604 75.8031C120.883 75.4802 121.276 75.2782 121.7 75.24C121.906 75.2135 122.115 75.2284 122.315 75.2837C122.515 75.3391 122.702 75.4338 122.865 75.5623C123.028 75.6908 123.164 75.8506 123.264 76.0322C123.365 76.2138 123.428 76.4136 123.45 76.62V76.62Z" fill="#263238"/>
<path d="M123.92 72.18C123.73 72.4 122.45 71.55 120.7 71.65C118.95 71.75 117.7 72.65 117.51 72.48C117.32 72.31 117.6 71.99 118.14 71.56C118.869 70.9922 119.757 70.6669 120.68 70.63C121.589 70.5761 122.49 70.8182 123.25 71.32C123.82 71.7 124.03 72.08 123.92 72.18Z" fill="#263238"/>
<path d="M107.62 77.35C107.645 77.7744 107.503 78.1917 107.225 78.5131C106.946 78.8344 106.554 79.0342 106.13 79.07C105.924 79.0979 105.714 79.084 105.514 79.0292C105.313 78.9745 105.126 78.8799 104.962 78.7511C104.799 78.6223 104.663 78.462 104.563 78.2798C104.463 78.0975 104.401 77.8969 104.38 77.69C104.352 77.2666 104.492 76.8492 104.769 76.5276C105.045 76.206 105.437 76.0058 105.86 75.97C106.067 75.9421 106.277 75.9559 106.478 76.0106C106.679 76.0652 106.867 76.1597 107.031 76.2883C107.195 76.417 107.332 76.5772 107.433 76.7596C107.534 76.9419 107.598 77.1427 107.62 77.35V77.35Z" fill="#263238"/>
<path d="M107.19 72.7C107 72.92 105.72 72.08 103.97 72.17C102.22 72.26 100.97 73.17 100.78 73C100.59 72.83 100.87 72.52 101.41 72.08C102.141 71.5163 103.028 71.1915 103.95 71.15C104.861 71.1024 105.764 71.3439 106.53 71.84C107.08 72.24 107.29 72.6 107.19 72.7Z" fill="#263238"/>
<path d="M114.1 84.77C115.009 84.4325 115.956 84.2108 116.92 84.11C117.36 84.04 117.78 83.93 117.84 83.62C117.856 83.1554 117.727 82.6974 117.47 82.31L115.98 78.98C113.92 74.24 112.36 70.31 112.55 70.24C112.74 70.17 114.55 73.95 116.67 78.7C117.17 79.87 117.67 80.99 118.11 82.06C118.422 82.5829 118.539 83.1992 118.44 83.8C118.382 83.9614 118.288 84.1074 118.165 84.2269C118.042 84.3465 117.893 84.4364 117.73 84.49C117.488 84.5727 117.235 84.6231 116.98 84.64C116.03 84.8086 115.062 84.8523 114.1 84.77V84.77Z" fill="#263238"/>
<path d="M116.37 105.43C110.402 105.829 104.44 104.562 99.15 101.77C99.15 101.77 103.89 110.5 116.53 108.67L116.37 105.43Z" fill="#FF9A6C"/>
<path d="M106.92 65.55C106.73 66.02 104.99 65.73 102.92 65.91C100.85 66.09 99.17 66.59 98.92 66.15C98.81 65.94 99.11 65.51 99.8 65.07C100.712 64.5311 101.735 64.2093 102.791 64.1295C103.847 64.0498 104.908 64.2142 105.89 64.61C106.68 64.94 107.04 65.32 106.92 65.55Z" fill="#263238"/>
<path d="M123.72 65.75C123.38 66.17 121.93 65.83 120.21 65.9C118.49 65.97 117.06 66.33 116.7 65.9C116.54 65.7 116.75 65.29 117.37 64.9C118.223 64.3912 119.197 64.1185 120.19 64.11C121.175 64.0622 122.154 64.2871 123.02 64.76C123.65 65.15 123.92 65.55 123.72 65.75Z" fill="#263238"/>
<path d="M95.55 49.8C95.6075 51.0751 95.9452 52.3218 96.5391 53.4516C97.1329 54.5814 97.9684 55.5664 98.986 56.3368C100.004 57.1072 101.178 57.644 102.427 57.909C103.676 58.1739 104.967 58.1606 106.21 57.87C108.13 57.42 110.21 56.34 111.94 57.29C113.67 58.24 113.94 60.94 115.59 62.23C117.93 64.06 121.39 62.06 124.27 62.76C126.5 63.31 127.97 65.33 129.52 67.03C131.07 68.73 133.32 70.29 135.52 69.53C135.357 67.5553 134.968 65.6059 134.36 63.72C133.742 61.8205 132.484 60.1945 130.8 59.12C129.815 58.6701 128.853 58.1694 127.92 57.62C126.02 56.24 125.48 53.7 124.25 51.71C123.447 50.4188 122.346 49.339 121.039 48.5612C119.732 47.7834 118.258 47.3304 116.74 47.24C114.23 47.1 111.74 47.98 109.23 47.49C107.41 47.12 105.78 46.03 103.94 45.77C100.36 45.27 97.18 47.98 94.74 50.64" fill="#263238"/>
<path d="M107.15 54.29C105.54 53.92 102.24 53.05 101.31 51.71C100.384 50.2647 99.093 49.0899 97.5668 48.3049C96.0407 47.5199 94.334 47.1525 92.62 47.24C90.8953 47.4536 89.2871 48.223 88.0386 49.4318C86.7901 50.6407 85.9692 52.2231 85.7 53.94C83.6298 54.1158 81.6455 54.8468 79.956 56.0559C78.2664 57.2649 76.9343 58.9073 76.1 60.81C75.2458 62.8075 74.8904 64.983 75.0646 67.1485C75.2389 69.314 75.9374 71.4047 77.1 73.24C77.652 74.2053 78.1365 75.2077 78.55 76.24C77.6237 77.0773 76.7798 78.0015 76.03 79C72.53 84.36 79.25 87.68 79.25 87.68C78.66 91.56 82.25 92.1 84.54 92.45C86.83 92.8 87.14 99.11 88.96 99.15L90.11 79.98C90.3609 80.1214 90.6353 80.2162 90.92 80.26C95.23 81.02 95.38 72.67 94.32 70.33C95.8452 68.9336 97.1891 67.3512 98.32 65.62C99.5736 62.9033 100.124 59.915 99.92 56.93C101.42 56.94 107.86 54.46 107.15 54.29Z" fill="#263238"/>
<path d="M90.57 81.1C90.5157 80.4766 90.3045 79.877 89.9563 79.3571C89.608 78.8372 89.1338 78.4138 88.5779 78.1264C88.022 77.839 87.4025 77.6968 86.7769 77.7132C86.1513 77.7296 85.5401 77.9039 85 78.22C83.75 79.03 82.84 80.57 83.1 83.43C83.79 91.06 91.3 88.79 91.3 88.57C91.3 88.35 90.92 84.24 90.57 81.1Z" fill="#FFBF9D"/>
<path d="M88.71 85.89C88.71 85.89 88.58 86 88.37 86.12C88.063 86.2831 87.7051 86.3225 87.37 86.23C86.54 86.01 85.75 84.79 85.59 83.42C85.5061 82.7666 85.5745 82.1026 85.79 81.48C85.8383 81.2357 85.9456 81.0069 86.1024 80.8135C86.2593 80.62 86.4609 80.4678 86.69 80.37C86.8392 80.3169 87.0021 80.3167 87.1514 80.3695C87.3007 80.4223 87.4273 80.5249 87.51 80.66C87.63 80.87 87.6 81.02 87.64 81.03C87.68 81.04 87.79 80.89 87.7 80.58C87.6434 80.3945 87.523 80.2351 87.36 80.13C87.1369 79.9895 86.8673 79.9428 86.61 80C86.3021 80.0922 86.0225 80.2606 85.797 80.4896C85.5715 80.7186 85.4074 81.0007 85.32 81.31C85.0579 82.0014 84.9686 82.7463 85.06 83.48C85.24 85.01 86.16 86.38 87.29 86.6C87.5005 86.6409 87.7174 86.6343 87.925 86.5807C88.1326 86.5271 88.3257 86.4278 88.49 86.29C88.71 86.08 88.73 85.9 88.71 85.89Z" fill="#FF9A6C"/>
<path d="M79.68 65.11C79.56 65.0368 79.4492 64.9495 79.35 64.85C79.0574 64.5757 78.7803 64.2852 78.52 63.98C77.5429 62.8326 76.872 61.4565 76.57 59.98C76.3667 58.9597 76.3975 57.9067 76.66 56.9C76.9502 55.7315 77.5677 54.67 78.44 53.84C78.9291 53.3809 79.5044 53.0234 80.1327 52.7882C80.7609 52.553 81.4296 52.4449 82.1 52.47C82.8257 52.4743 83.5405 52.6472 84.1878 52.9753C84.8352 53.3033 85.3974 53.7773 85.83 54.36L85.47 54.53V54.45C84.5526 51.831 84.7071 48.9556 85.9 46.45C86.3993 45.4407 87.1377 44.5686 88.051 43.9098C88.9642 43.251 90.0247 42.8254 91.14 42.67C91.8906 42.596 92.6483 42.6739 93.3682 42.899C94.088 43.124 94.7552 43.4917 95.33 43.98C95.6402 44.2459 95.9097 44.5559 96.13 44.9C96.2074 45.0156 96.2712 45.1397 96.32 45.27C96.0054 44.8373 95.6394 44.4444 95.23 44.1C94.0774 43.2039 92.6213 42.7914 91.17 42.95C90.1121 43.1193 89.1107 43.5413 88.2507 44.1802C87.3907 44.8191 86.6975 45.656 86.23 46.62C85.1096 49.0337 84.9768 51.7897 85.86 54.3V54.38L86.22 55.57L85.51 54.57C85.1125 54.0393 84.5982 53.6072 84.0068 53.3072C83.4155 53.0072 82.763 52.8473 82.1 52.84C81.4788 52.8136 80.8586 52.9105 80.275 53.1251C79.6915 53.3396 79.1562 53.6675 78.7 54.09C77.8698 54.8655 77.2768 55.8607 76.99 56.96C76.7226 57.9377 76.6782 58.9629 76.86 59.96C77.1372 61.3871 77.7509 62.7276 78.65 63.87C79.27 64.7 79.71 65.08 79.68 65.11Z" fill="#263238"/>
<path d="M84.68 87.52C84.3576 87.6559 84.0494 87.8234 83.76 88.02C83.0363 88.6381 82.5168 89.4609 82.27 90.38C82.0714 91.0065 81.9867 91.6636 82.02 92.32C82.065 93.0663 82.299 93.789 82.7 94.42C83.1547 95.1152 83.7727 95.6885 84.5 96.09C85.2687 96.5353 86.1542 96.7375 87.04 96.67C87.929 96.6093 88.7807 96.2895 89.49 95.75C90.1478 95.2519 90.6535 94.58 90.95 93.81C91.2212 93.1611 91.3524 92.4624 91.3352 91.7593C91.318 91.0563 91.1526 90.3648 90.85 89.73C90.4095 88.8809 89.673 88.2227 88.78 87.88C88.4553 87.7756 88.1198 87.7086 87.78 87.68H88.05C88.3158 87.6851 88.579 87.7323 88.83 87.82C89.766 88.1316 90.5442 88.795 91 89.67C91.3246 90.3218 91.5068 91.0352 91.5344 91.7628C91.5619 92.4904 91.4343 93.2155 91.16 93.89C90.8405 94.6829 90.3117 95.3742 89.63 95.89C88.896 96.4655 88.0095 96.8131 87.08 96.89C86.1517 96.9643 85.2231 96.7513 84.42 96.28C83.6626 95.8624 83.0229 95.2605 82.56 94.53C82.1446 93.8712 81.9037 93.1176 81.86 92.34C81.8361 91.6613 81.9343 90.9839 82.15 90.34C82.4095 89.3932 82.967 88.5552 83.74 87.95C83.9547 87.7968 84.1905 87.6755 84.44 87.59C84.5176 87.5591 84.5979 87.5357 84.68 87.52V87.52Z" fill="#455A64"/>
<path d="M113.92 88.98C113.763 88.6383 113.494 88.3602 113.158 88.1912C112.822 88.0222 112.438 87.9724 112.07 88.05C111.742 88.0549 111.426 88.1747 111.178 88.3885C110.929 88.6023 110.764 88.8966 110.71 89.22C110.656 89.4555 110.651 89.6997 110.695 89.9372C110.74 90.1747 110.834 90.4004 110.97 90.6C111.211 90.9478 111.564 91.2021 111.97 91.32C112.219 91.3814 112.477 91.3891 112.729 91.3425C112.981 91.296 113.22 91.1963 113.43 91.05C113.681 90.775 113.857 90.4407 113.943 90.0785C114.029 89.7163 114.021 89.3382 113.92 88.98V88.98Z" fill="#FF9A6C"/>
<path d="M92.35 377.86L96.28 411.77L111.14 409.51L112.14 376.09L92.35 377.86Z" fill="#FFBF9D"/>
<path d="M111.19 402.79C111.19 402.79 101.19 411.24 95.66 405.03L94.56 408.34L90.19 431.63C90.0335 432.353 90.1436 433.109 90.5001 433.758C90.8566 434.406 91.4354 434.904 92.13 435.16C92.6569 435.325 93.2202 435.334 93.7523 435.187C94.2844 435.04 94.7627 434.742 95.13 434.33C99.13 429.78 113.89 412.97 113.59 410.87L113.13 405.27C113.085 404.703 112.871 404.163 112.514 403.72C112.157 403.278 111.674 402.954 111.13 402.79H111.19Z" fill="#CD8802"/>
<g opacity="0.6">
<path d="M92.66 435.24L113.48 408.88L113.56 410.1C113.625 410.601 113.58 411.11 113.428 411.592C113.276 412.074 113.021 412.517 112.68 412.89C111.03 415.55 106.38 421.58 95.24 434.28C94.9285 434.65 94.5288 434.935 94.0779 435.11C93.627 435.285 93.1394 435.343 92.66 435.28V435.24Z" fill="white"/>
</g>
<g opacity="0.6">
<path d="M109.92 405.53C109.587 405.82 109.37 406.221 109.31 406.658C109.249 407.096 109.349 407.54 109.59 407.91C109.852 408.257 110.24 408.486 110.67 408.55C111.101 408.613 111.538 408.506 111.89 408.25C112.239 407.94 112.464 407.514 112.525 407.052C112.586 406.589 112.477 406.119 112.22 405.73C112.066 405.564 111.881 405.43 111.676 405.336C111.47 405.243 111.248 405.19 111.022 405.183C110.796 405.175 110.57 405.213 110.359 405.293C110.148 405.373 109.954 405.495 109.79 405.65" fill="white"/>
</g>
<path d="M98.27 422.17C97.5367 421.322 96.6472 420.622 95.65 420.11C93.93 419.36 92.4 419.89 92.35 419.71C92.3 419.53 92.67 419.39 93.35 419.25C94.211 419.079 95.1036 419.173 95.91 419.52C96.723 419.854 97.4189 420.421 97.91 421.15C98.27 421.72 98.34 422.14 98.27 422.17Z" fill="#263238"/>
<path d="M96.52 426.24C96.39 426.38 95.42 425.5 93.93 425.18C92.44 424.86 91.21 425.18 91.15 425.02C91.09 424.86 92.38 424.17 94.07 424.56C95.76 424.95 96.66 426.1 96.52 426.24Z" fill="#263238"/>
<path d="M101.69 416.93C101.56 417.08 100.08 415.73 97.81 415.03C95.54 414.33 93.57 414.53 93.55 414.34C93.53 414.15 95.55 413.63 97.99 414.42C100.43 415.21 101.82 416.84 101.69 416.93Z" fill="#263238"/>
<path d="M101.7 409.95C101.63 410.13 100.03 409.57 97.99 409.65C95.95 409.73 94.38 410.34 94.31 410.17C94.24 410 95.79 409.07 97.98 409.01C100.17 408.95 101.78 409.81 101.7 409.95Z" fill="#263238"/>
<path d="M96.83 409.68C96.786 409.312 96.8132 408.938 96.91 408.58C97.1149 407.592 97.5125 406.654 98.08 405.82C98.4323 405.178 98.9881 404.671 99.66 404.38C99.8878 404.305 100.134 404.304 100.362 404.377C100.59 404.451 100.789 404.596 100.93 404.79C101.194 405.187 101.301 405.668 101.23 406.14C101.07 407.092 100.583 407.958 99.8525 408.59C99.1225 409.221 98.1951 409.578 97.23 409.6C96.2812 409.588 95.358 409.29 94.5805 408.746C93.8029 408.202 93.2069 407.437 92.87 406.55C92.7821 406.323 92.7438 406.08 92.7576 405.836C92.7714 405.593 92.837 405.356 92.95 405.14C93.0788 404.936 93.2701 404.779 93.4954 404.693C93.7206 404.606 93.9677 404.595 94.2 404.66C94.8796 404.892 95.4841 405.303 95.95 405.85C96.6445 406.567 97.2095 407.4 97.62 408.31C97.7892 408.62 97.8978 408.959 97.94 409.31C97.3256 408.151 96.5514 407.084 95.64 406.14C95.2188 405.683 94.6892 405.339 94.1 405.14C93.9724 405.1 93.8353 405.104 93.7103 405.151C93.5854 405.199 93.4797 405.286 93.41 405.4C93.2889 405.695 93.2889 406.025 93.41 406.32C93.7242 407.076 94.2518 407.725 94.9283 408.187C95.6049 408.648 96.4011 408.903 97.22 408.92C98.0347 408.9 98.8186 408.605 99.4435 408.081C100.068 407.558 100.497 406.839 100.66 406.04C100.724 405.696 100.66 405.34 100.48 405.04C100.403 404.932 100.294 404.851 100.168 404.81C100.042 404.768 99.9059 404.768 99.78 404.81C99.2137 405.06 98.7387 405.479 98.42 406.01C97.6762 407.129 97.1378 408.372 96.83 409.68V409.68Z" fill="#263238"/>
<path d="M151.23 404.58C150.89 404.06 147.77 392.71 147.77 392.71L167.01 387.47L169.74 403.83L151.23 404.58Z" fill="#FFBF9D"/>
<path d="M169.57 400.61V401.91C169.57 401.91 190.74 410.54 191.01 414.74L149.17 415.04L149.65 400.41C155.92 403.39 162.42 403.68 169.57 400.61Z" fill="#CD8802"/>
<g opacity="0.6">
<path d="M153.92 405.06C153.509 405.202 153.164 405.488 152.949 405.865C152.734 406.242 152.663 406.685 152.75 407.11C152.848 407.529 153.106 407.893 153.468 408.124C153.83 408.356 154.269 408.437 154.69 408.35C155.123 408.193 155.485 407.886 155.71 407.483C155.934 407.081 156.005 406.611 155.91 406.16C155.839 405.95 155.727 405.756 155.581 405.59C155.435 405.423 155.257 405.287 155.058 405.19C154.86 405.092 154.643 405.035 154.422 405.021C154.201 405.007 153.979 405.038 153.77 405.11" fill="white"/>
</g>
<g opacity="0.6">
<path d="M149.19 415.04L149.31 411.52L189.37 412.52C189.37 412.52 191.23 413.36 191.03 414.74L149.19 415.04Z" fill="white"/>
</g>
<path d="M169.74 402.04C169.74 402.25 168.74 402.36 167.74 403.04C166.74 403.72 166.21 404.65 166.02 404.56C165.83 404.47 166.13 403.24 167.35 402.42C168.57 401.6 169.78 401.84 169.74 402.04Z" fill="#263238"/>
<path d="M174.14 403.91C174.19 404.12 173.3 404.49 172.61 405.4C171.92 406.31 171.73 407.28 171.53 407.27C171.33 407.26 171.19 406.05 172.06 404.93C172.93 403.81 174.13 403.71 174.14 403.91Z" fill="#263238"/>
<path d="M176.67 409.41C176.48 409.46 176.19 408.41 176.67 407.21C177.15 406.01 178.14 405.56 178.22 405.73C178.3 405.9 177.72 406.55 177.31 407.52C176.9 408.49 176.92 409.39 176.67 409.41Z" fill="#263238"/>
<path d="M141.01 205.24C141.92 205.84 148.81 247.12 157.79 302.01C165.17 347.16 169.47 392.87 169.47 392.87L148.77 396.87C148.77 396.87 129.27 340.87 118.96 300.66C109.45 263.54 104.8 237.55 104.8 237.55V210.41L141.01 205.24Z" fill="#263238"/>
<path d="M78.22 190.04C78.22 190.04 59.15 215.81 60.75 242.72C61.75 258.81 92.35 396.03 92.35 396.03H115.16L107.71 244.88L109.89 209.68L78.22 190.04Z" fill="#263238"/>
<path d="M139.09 118.17C139.09 118.17 145.6 119.23 149.02 128.5C152.58 138.15 156.64 160.8 156.64 160.8L131.97 163.11L132.75 126.06L139.09 118.17Z" fill="#CD8802"/>
<path d="M70.42 117.78C70.42 117.78 59.92 120.57 58.53 137.59C57.74 146.98 57.92 163.11 57.92 163.11C57.92 163.11 61.16 164.23 70.14 160.62C77.4 157.7 84.49 160.73 84.49 160.73L72.63 125.33L70.42 117.78Z" fill="#CD8802"/>
<path d="M88.48 107.56L84.02 112.71L69.18 118.17L72.4 181.06L63.18 218.91C63.18 218.91 72.18 220.65 75.76 225.41C79.34 230.17 89.93 235.58 103.13 236.41C116.33 237.24 127.57 229.06 132.77 226.46C137.97 223.86 146.34 221.73 147.38 218.88C148.06 217.01 140.12 161.34 140.12 161.34L139.12 118.14L125.63 115.02L120.36 110.64L101.08 126.74L96.73 121.34L88.48 107.56Z" fill="#CD8802"/>
<path d="M145.84 207.43C145.617 207.617 145.376 207.781 145.12 207.92L142.97 209.24C141.11 210.36 138.4 211.98 134.97 213.84C130.963 216.048 126.806 217.973 122.53 219.6C117.284 221.63 111.755 222.834 106.14 223.17C100.507 223.531 94.863 222.646 89.61 220.58C87.3365 219.637 85.179 218.436 83.18 217C81.32 215.63 79.71 214.23 78.18 213.07C76.8044 211.998 75.3033 211.098 73.71 210.39C72.5087 209.865 71.2338 209.527 69.93 209.39C68.8104 209.297 67.6833 209.382 66.59 209.64C66.6544 209.601 66.7256 209.573 66.8 209.56C67.0037 209.48 67.2147 209.42 67.43 209.38C68.2482 209.208 69.0877 209.161 69.92 209.24C71.2576 209.336 72.571 209.647 73.81 210.16C75.4375 210.854 76.9725 211.748 78.38 212.82C79.96 213.96 81.59 215.36 83.44 216.69C85.4156 218.091 87.5464 219.258 89.79 220.17C94.9861 222.184 100.558 223.044 106.12 222.69C111.679 222.352 117.155 221.172 122.36 219.19C126.625 217.595 130.778 215.714 134.79 213.56C138.24 211.74 140.97 210.17 142.87 209.11L145.06 207.88C145.309 207.712 145.57 207.562 145.84 207.43V207.43Z" fill="white"/>
<path d="M143.72 191.77C143.525 191.956 143.311 192.121 143.08 192.26C142.65 192.57 142.01 193.02 141.17 193.56C138.799 195.113 136.346 196.535 133.82 197.82C130.077 199.734 126.171 201.313 122.15 202.54C117.206 204.055 112.087 204.922 106.92 205.12C101.757 205.314 96.5933 204.738 91.6 203.41C89.4214 202.833 87.2888 202.094 85.22 201.2C83.28 200.35 81.55 199.42 79.96 198.6C77.5377 197.163 74.8511 196.228 72.06 195.85C71.0327 195.788 70.0018 195.852 68.99 196.04C69.2413 195.949 69.4986 195.876 69.76 195.82C70.5187 195.659 71.2958 195.601 72.07 195.65C74.07 195.65 76.94 196.65 80.13 198.27C81.73 199.07 83.47 199.98 85.39 200.8C87.4439 201.672 89.5597 202.391 91.72 202.95C96.6786 204.24 101.8 204.793 106.92 204.59C112.037 204.401 117.108 203.558 122.01 202.08C126.015 200.879 129.912 199.343 133.66 197.49C136.86 195.91 139.36 194.43 141.06 193.39L143.06 192.18C143.271 192.029 143.491 191.892 143.72 191.77V191.77Z" fill="white"/>
<path d="M141.31 178.13C141.165 178.32 141.005 178.497 140.83 178.66C140.354 179.154 139.839 179.609 139.29 180.02C137.238 181.499 134.943 182.609 132.51 183.3C128.907 184.307 125.228 185.022 121.51 185.44C108.721 187.09 95.7412 186.443 83.18 183.53C80.09 182.78 77.61 182.07 75.92 181.53L73.98 180.87C73.7484 180.806 73.5238 180.719 73.31 180.61C73.5471 180.645 73.7812 180.699 74.01 180.77L76.01 181.33C77.72 181.82 80.2 182.47 83.29 183.17C91.382 184.927 99.6395 185.809 107.92 185.8C112.466 185.801 117.008 185.52 121.52 184.96C125.208 184.569 128.862 183.901 132.45 182.96C134.862 182.306 137.149 181.258 139.22 179.86C140.61 178.83 141.27 178.09 141.31 178.13Z" fill="white"/>
<path d="M140.6 163.11C140.382 163.198 140.158 163.271 139.93 163.33L137.99 163.87C137.15 164.11 136.12 164.39 134.91 164.67C133.7 164.95 132.33 165.3 130.79 165.6C127.74 166.27 124.07 166.93 119.97 167.52C115.87 168.11 111.35 168.57 106.58 168.86C101.81 169.15 97.26 169.16 93.13 169.08C89 169 85.27 168.73 82.13 168.42C80.57 168.3 79.13 168.11 77.93 167.96C76.73 167.81 75.64 167.67 74.78 167.54L72.78 167.22C72.5452 167.195 72.3138 167.145 72.09 167.07C72.3228 167.048 72.5572 167.048 72.79 167.07L74.79 167.29C75.66 167.4 76.72 167.53 77.96 167.64C79.2 167.75 80.59 167.91 82.15 168.01C85.26 168.27 88.97 168.46 93.15 168.56C97.33 168.66 101.81 168.56 106.56 168.3C111.31 168.04 115.83 167.54 119.92 167C124.01 166.46 127.67 165.82 130.73 165.2C132.26 164.92 133.64 164.6 134.85 164.34C136.06 164.08 137.1 163.84 137.95 163.64L139.95 163.19C140.163 163.14 140.381 163.113 140.6 163.11V163.11Z" fill="white"/>
<path d="M133.34 147.76C133.169 147.847 132.988 147.911 132.8 147.95L131.2 148.39C129.82 148.78 127.8 149.26 125.29 149.81C118.73 151.191 112.053 151.944 105.35 152.06C97.49 152.17 90.41 151.57 85.29 151.18L79.24 150.66L77.59 150.5C77.3968 150.489 77.2055 150.455 77.02 150.4C77.2129 150.383 77.4071 150.383 77.6 150.4L79.25 150.47L85.32 150.82C90.44 151.12 97.52 151.66 105.32 151.55C111.995 151.431 118.646 150.732 125.2 149.46C127.71 148.96 129.74 148.54 131.14 148.21L132.75 147.86C132.941 147.798 133.139 147.764 133.34 147.76Z" fill="white"/>
<path d="M136.86 131.49C136.64 131.537 136.415 131.56 136.19 131.56L134.26 131.68L127.15 132.05C119.34 132.443 111.561 133.321 103.86 134.68C94.86 136.28 86.47 136.95 80.45 136.6C78.0703 136.5 75.6991 136.253 73.35 135.86C72.52 135.73 71.89 135.57 71.45 135.49C71.2274 135.454 71.0094 135.394 70.8 135.31C71.0247 135.318 71.2486 135.341 71.47 135.38C71.91 135.44 72.55 135.56 73.39 135.66C75.7349 135.976 78.0949 136.166 80.46 136.23C88.2797 136.334 96.0897 135.644 103.77 134.17C111.489 132.794 119.295 131.962 127.13 131.68C130.13 131.56 132.57 131.5 134.25 131.47H136.19C136.413 131.451 136.638 131.457 136.86 131.49V131.49Z" fill="white"/>
<path opacity="0.3" d="M84.49 114.03L89.12 133.97L91.92 130.06L84.49 114.03Z" fill="black"/>
<path d="M99.12 125.09C99.0417 125.315 98.9305 125.527 98.79 125.72C98.54 126.12 98.16 126.72 97.66 127.39C96.66 128.8 95.13 130.7 93.56 133.07L93.34 133.41L93.15 133.05C92.25 131.33 91.3 129.41 90.33 127.38C88.41 123.38 86.79 119.7 85.63 117.03C85.06 115.69 84.63 114.61 84.3 113.85C84.1206 113.468 83.9799 113.07 83.88 112.66C84.1209 113.008 84.3253 113.38 84.49 113.77C84.88 114.6 85.38 115.64 85.97 116.88C87.25 119.61 88.97 123.19 90.8 127.16C91.8 129.16 92.7 131.1 93.57 132.83H93.16C94.79 130.44 96.38 128.6 97.43 127.24C98.48 125.88 99.08 125.06 99.12 125.09Z" fill="#263238"/>
<path d="M116.33 162.42C116.464 162.378 116.601 162.348 116.74 162.33L117.93 162.14C118.93 161.98 120.5 161.76 122.47 161.54C126.4 161.08 132.05 160.54 138.9 160.4H139.1V160.59C139.59 164.76 140.1 169.36 140.7 174.28C140.98 176.74 141.28 179.28 141.58 181.89C141.733 183.223 141.883 184.557 142.03 185.89C142.11 186.56 142.19 187.23 142.26 187.89C142.385 188.586 142.419 189.295 142.36 190C142.318 190.257 142.225 190.503 142.086 190.723C141.947 190.943 141.764 191.132 141.55 191.28C141.134 191.53 140.671 191.694 140.19 191.76C139.26 191.88 138.4 191.89 137.52 191.96L132.35 192.3L127.35 192.62C125.741 192.84 124.109 192.84 122.5 192.62C121.715 192.44 120.985 192.074 120.372 191.551C119.759 191.029 119.282 190.367 118.98 189.62C118.442 188.266 118.105 186.841 117.98 185.39C117.64 182.63 117.38 180.06 117.18 177.7C116.79 173 116.58 169.18 116.45 166.55C116.4 165.26 116.35 164.24 116.32 163.55C116.32 163.23 116.32 162.97 116.32 162.76C116.309 162.67 116.309 162.58 116.32 162.49C116.351 162.577 116.368 162.668 116.37 162.76C116.37 162.96 116.37 163.22 116.44 163.54C116.49 164.28 116.57 165.29 116.66 166.54C116.86 169.18 117.12 172.99 117.56 177.68C117.78 180.03 118.06 182.6 118.42 185.34C118.547 186.749 118.884 188.131 119.42 189.44C119.697 190.113 120.135 190.708 120.694 191.173C121.253 191.638 121.918 191.96 122.63 192.11C124.19 192.321 125.77 192.321 127.33 192.11L132.33 191.77L137.5 191.42C138.37 191.35 139.28 191.33 140.12 191.22C140.96 191.11 141.75 190.71 141.86 189.89C141.908 189.222 141.874 188.55 141.76 187.89C141.68 187.22 141.6 186.55 141.53 185.89C141.37 184.557 141.22 183.223 141.08 181.89C140.78 179.277 140.493 176.74 140.22 174.28C139.66 169.35 139.15 164.75 138.68 160.58L138.9 160.77C132.06 160.88 126.41 161.33 122.48 161.72L117.92 162.24L116.73 162.37C116.598 162.397 116.464 162.414 116.33 162.42V162.42Z" fill="#263238"/>
<path d="M139.92 168.24C139.92 168.39 134.79 168.81 128.44 169.24C122.09 169.67 116.94 169.82 116.93 169.67C116.92 169.52 122.06 169.1 128.41 168.72C134.76 168.34 139.92 168.11 139.92 168.24Z" fill="#263238"/>
<path d="M108.23 236.51C108.217 236.42 108.217 236.33 108.23 236.24C108.23 236.02 108.23 235.76 108.23 235.43C108.23 234.69 108.23 233.66 108.17 232.36C108.17 229.64 108.08 225.78 108.02 221.03C107.89 211.44 107.7 198.25 107.5 183.68C107.3 169.11 107.3 155.87 107.41 146.31C107.46 141.52 107.53 137.66 107.61 134.98C107.61 133.68 107.69 132.65 107.71 131.9C107.71 131.58 107.71 131.32 107.71 131.11C107.697 131.017 107.697 130.923 107.71 130.83C107.725 130.923 107.725 131.017 107.71 131.11C107.71 131.32 107.71 131.58 107.71 131.91C107.71 132.65 107.71 133.68 107.71 134.99C107.71 137.7 107.71 141.56 107.71 146.31C107.71 155.87 107.78 169.08 107.95 183.67C108.12 198.26 108.29 211.47 108.32 221.03C108.32 225.81 108.32 229.68 108.32 232.35C108.32 233.66 108.32 234.69 108.32 235.43C108.32 235.76 108.32 236.02 108.32 236.24C108.304 236.334 108.274 236.425 108.23 236.51V236.51Z" fill="#263238"/>
<path d="M78.84 206.24C78.9541 209.381 78.8874 212.526 78.64 215.66C78.5732 218.801 78.3295 221.936 77.91 225.05C77.8085 221.909 77.8786 218.764 78.12 215.63C78.1933 212.489 78.4336 209.355 78.84 206.24V206.24Z" fill="#263238"/>
<path d="M75.92 210.54C75.824 211.935 75.5518 213.313 75.11 214.64C74.8392 216.023 74.3958 217.367 73.79 218.64C73.8936 217.245 74.169 215.868 74.61 214.54C74.8769 213.157 75.3171 211.813 75.92 210.54V210.54Z" fill="#263238"/>
<path d="M132.68 219.66C132.255 218.873 131.92 218.041 131.68 217.18C130.265 213.07 129.384 208.795 129.06 204.46C128.954 203.563 128.954 202.657 129.06 201.76C129.258 202.635 129.389 203.525 129.45 204.42C129.65 206.07 129.98 208.33 130.45 210.8C130.92 213.27 131.55 215.47 132.01 217.06C132.298 217.909 132.522 218.778 132.68 219.66V219.66Z" fill="#263238"/>
<path d="M124.99 116.24C124.749 116.601 124.47 116.936 124.16 117.24L121.76 119.83C119.76 122 116.87 124.97 113.7 128.22L109.22 132.8C108.86 133.15 108.56 133.5 108.16 133.8C107.955 133.97 107.711 134.087 107.45 134.14C107.176 134.181 106.896 134.124 106.66 133.98C106.292 133.718 105.988 133.376 105.77 132.98L105.16 131.98C104.44 130.77 103.83 129.76 103.34 128.98C103.102 128.617 102.902 128.232 102.74 127.83C103.032 128.137 103.293 128.472 103.52 128.83L105.52 131.76L106.16 132.76C106.348 133.104 106.611 133.402 106.93 133.63C107.093 133.711 107.278 133.739 107.458 133.708C107.637 133.678 107.803 133.591 107.93 133.46C108.25 133.19 108.58 132.8 108.93 132.46L113.39 127.85C116.55 124.59 119.44 121.66 121.55 119.56L124.07 117.09C124.349 116.778 124.657 116.493 124.99 116.24V116.24Z" fill="#263238"/>
<g opacity="0.3">
<path d="M141.65 183.55C131.81 164.883 121.477 146.45 110.65 128.25L106.7 135.51C111.34 143.64 111.51 153.51 113.91 162.51C116.512 172.193 121.697 180.986 128.91 187.95C131.06 190.02 133.56 191.95 136.53 192.33C139.5 192.71 142.88 190.65 143 187.67C142.914 186.203 142.449 184.783 141.65 183.55V183.55Z" fill="black"/>
</g>
<g opacity="0.3">
<path d="M80.18 180.02L70.98 189.37C72.22 192.72 75.98 194.67 79.58 194.37C81.3498 194.15 83.0578 193.579 84.6034 192.689C86.1491 191.8 87.5011 190.61 88.58 189.19C90.7314 186.335 92.3909 183.141 93.49 179.74C97.5168 168.558 100.078 156.901 101.11 145.06C94.1433 156.727 87.1667 168.38 80.18 180.02Z" fill="black"/>
</g>
<path d="M76.78 144.73C76.0016 144.066 75.2884 143.329 74.65 142.53C73.39 141.14 71.65 139.18 69.72 137.09C68.0657 135.291 66.3131 133.585 64.47 131.98C63.05 130.77 62.07 130.14 62.12 130.06C62.3856 130.141 62.6358 130.266 62.86 130.43C63.5012 130.811 64.1159 131.236 64.7 131.7C66.6321 133.218 68.438 134.89 70.1 136.7C72.1 138.81 73.74 140.8 74.93 142.27C75.6138 143.037 76.2326 143.86 76.78 144.73V144.73Z" fill="#263238"/>
<path d="M144 122.24C143.406 123.037 142.765 123.799 142.08 124.52C140.535 126.345 139.125 128.281 137.86 130.31C136.604 132.345 135.495 134.467 134.54 136.66C134.192 137.592 133.791 138.503 133.34 139.39C133.517 138.404 133.805 137.441 134.2 136.52C135.061 134.258 136.139 132.084 137.42 130.03C138.698 127.978 140.168 126.053 141.81 124.28C142.454 123.513 143.189 122.828 144 122.24V122.24Z" fill="#263238"/>
<path d="M87.09 119.73C87.09 119.82 85.7 120.08 83.49 120.73C77.7143 122.368 72.3526 125.214 67.76 129.08C65.99 130.55 64.99 131.57 64.93 131.51C65.1041 131.223 65.316 130.961 65.56 130.73C65.99 130.24 66.66 129.58 67.56 128.8C72.0861 124.736 77.538 121.842 83.44 120.37C84.327 120.148 85.2249 119.971 86.13 119.84C86.4447 119.767 86.7668 119.73 87.09 119.73V119.73Z" fill="white"/>
<path d="M141.92 124C140.993 123.776 140.087 123.475 139.21 123.1C137.56 122.5 135.27 121.7 132.72 120.89C130.17 120.08 127.83 119.44 126.14 118.98C125.207 118.793 124.294 118.521 123.41 118.17C124.36 118.224 125.302 118.378 126.22 118.63C127.95 118.99 130.31 119.63 132.88 120.4C135.45 121.17 137.72 122.07 139.35 122.76C140.247 123.084 141.108 123.5 141.92 124V124Z" fill="white"/>
<path d="M151.38 138.02C148.557 138.486 145.708 138.787 142.85 138.92C140.007 139.222 137.148 139.345 134.29 139.29C137.11 138.824 139.955 138.527 142.81 138.4C145.656 138.098 148.518 137.971 151.38 138.02V138.02Z" fill="white"/>
<path d="M154.47 153.45C153.938 153.733 153.358 153.916 152.76 153.99C151.341 154.262 149.904 154.423 148.46 154.47C146.77 154.53 145.25 154.52 144.15 154.52C143.552 154.569 142.95 154.538 142.36 154.43C142.36 154.26 145.08 154.03 148.43 153.95C151.78 153.87 154.44 153.32 154.47 153.45Z" fill="white"/>
<path d="M76.01 144.74C75.2124 145.02 74.3824 145.198 73.54 145.27C71.5246 145.538 69.493 145.665 67.46 145.65C65.08 145.65 62.93 145.55 61.38 145.49C60.5392 145.507 59.6987 145.443 58.87 145.3C59.697 145.144 60.5392 145.084 61.38 145.12C62.94 145.12 65.09 145.12 67.45 145.12C69.81 145.12 71.95 145.02 73.45 144.9C74.2975 144.777 75.1537 144.723 76.01 144.74V144.74Z" fill="white"/>
<path d="M102.46 97.48C102.46 97.48 101.06 110.48 101.78 111.76C102.5 113.04 109.48 121 109.48 121L119.99 120.61L126.6 102.42L125.12 94.73C125.12 94.73 123.67 94.47 123.29 96.39L122.09 90.89C122.09 90.89 119.33 89.67 119.37 92.13C119.41 94.59 119.52 97.13 119.52 97.13L117.92 103.94L118.62 94.52L116.81 88.85C116.81 88.85 114.52 88.01 114.18 91.21C113.979 93.2035 113.939 95.21 114.06 97.21L112.51 102.96L112.74 92.44C112.74 92.44 112.09 88.88 110.28 89.87C108.47 90.86 106.92 106.58 106.92 106.58L105.92 108.58L106.3 104.01C106.3 104.01 106.47 95.24 102.46 97.48Z" fill="#FFBF9D"/>
<path d="M102.46 97.48L102.65 97.36C102.86 97.2539 103.081 97.1733 103.31 97.12C103.692 97.0314 104.094 97.0848 104.44 97.27C104.887 97.56 105.235 97.9783 105.44 98.47C106 99.819 106.305 101.26 106.34 102.72C106.34 103.15 106.39 103.59 106.34 104.06C106.29 104.53 106.26 104.99 106.23 105.47C106.15 106.47 106.07 107.47 105.98 108.58L105.71 108.51C106.02 107.89 106.36 107.21 106.71 106.51V106.57C106.99 103.66 107.36 100.41 107.93 96.87C108.202 95.0111 108.603 93.1734 109.13 91.37C109.27 90.875 109.483 90.4033 109.76 89.97C109.936 89.7278 110.192 89.5551 110.483 89.482C110.773 89.4089 111.08 89.4401 111.35 89.57C111.814 89.8678 112.165 90.3109 112.35 90.83C112.564 91.3189 112.728 91.8281 112.84 92.35V92.35C112.77 95.68 112.7 99.2 112.63 102.87L112.17 102.8C112.65 101 113.17 99.05 113.71 97.05V97.13C113.599 95.4652 113.599 93.7948 113.71 92.13C113.709 91.2396 113.889 90.3584 114.24 89.54C114.455 89.0852 114.833 88.7282 115.3 88.54C115.773 88.3746 116.287 88.3746 116.76 88.54H116.87V88.67C117.44 90.46 118.06 92.39 118.69 94.34V94.44C118.47 97.44 118.23 100.63 117.99 103.86L117.48 103.78C117.79 102.47 118.13 101.06 118.48 99.64C118.69 98.75 118.91 97.87 119.12 96.99V97.06C119.12 95.85 119.05 94.65 119.01 93.45C119.01 92.84 118.95 92.29 119.01 91.63C119.031 91.2601 119.175 90.9078 119.42 90.63C119.688 90.3673 120.045 90.214 120.42 90.2C120.76 90.181 121.099 90.2491 121.405 90.3979C121.712 90.5466 121.975 90.7711 122.17 91.05C122.357 91.3197 122.483 91.6268 122.54 91.95L122.72 92.81C122.97 93.94 123.21 95.07 123.46 96.19H122.96C123.043 95.687 123.268 95.2184 123.61 94.84C123.8 94.6492 124.032 94.5042 124.286 94.4159C124.541 94.3275 124.812 94.2982 125.08 94.33H125.25V94.51C125.75 97.13 126.243 99.6933 126.73 102.2V102.27V102.33C124.34 108.85 122.11 114.95 120.08 120.51L120.03 120.65H119.88L109.38 121.01H109.29L109.23 120.95C106.56 117.87 104.14 115.09 102.15 112.52C101.887 112.217 101.665 111.881 101.49 111.52C101.425 111.323 101.388 111.117 101.38 110.91C101.365 110.72 101.365 110.53 101.38 110.34C101.38 109.58 101.38 108.85 101.38 108.16C101.44 106.77 101.53 105.51 101.62 104.37C101.81 102.1 101.99 100.37 102.13 99.15C102.2 98.57 102.25 98.15 102.29 97.79C102.301 97.6344 102.328 97.4802 102.37 97.33C102.37 97.33 102.37 97.49 102.37 97.8C102.37 98.11 102.31 98.58 102.26 99.16C102.17 100.35 102.01 102.16 101.86 104.39C101.79 105.52 101.71 106.79 101.67 108.17C101.67 108.86 101.67 109.58 101.67 110.32C101.66 110.507 101.66 110.693 101.67 110.88C101.68 111.06 101.714 111.238 101.77 111.41C101.931 111.772 102.144 112.108 102.4 112.41C104.4 114.94 106.84 117.71 109.52 120.76L109.37 120.7L119.88 120.29L119.68 120.43C121.68 114.86 123.91 108.75 126.27 102.22V102.35C125.79 99.85 125.27 97.28 124.78 94.66L124.99 94.86C124.807 94.8462 124.622 94.8721 124.45 94.9359C124.277 94.9998 124.12 95.1001 123.99 95.23C123.715 95.5396 123.535 95.9212 123.47 96.33L123.23 97.55L122.97 96.33C122.72 95.21 122.48 94.08 122.23 92.94L122.04 92.09C122.003 91.8348 121.907 91.5917 121.76 91.38C121.62 91.1706 121.426 91.002 121.2 90.8914C120.973 90.7808 120.721 90.732 120.47 90.75C120.23 90.7578 120.002 90.8596 119.835 91.0334C119.669 91.2073 119.577 91.4394 119.58 91.68C119.58 92.2 119.58 92.85 119.58 93.43C119.58 94.62 119.65 95.82 119.69 97.03V97.24L119.06 99.89C118.72 101.31 118.38 102.72 118.06 104.03L117.55 103.95C117.79 100.72 118.03 97.53 118.26 94.53V94.63C117.64 92.63 117.02 90.74 116.45 88.95L116.6 89.11C116.244 88.9828 115.854 88.9909 115.503 89.1329C115.153 89.2749 114.867 89.5408 114.7 89.88C114.388 90.6351 114.225 91.4432 114.22 92.26C114.115 93.8983 114.115 95.5417 114.22 97.18V97.24C113.69 99.24 113.16 101.24 112.67 102.99L112.16 104.86L112.21 102.92C112.29 99.25 112.38 95.73 112.46 92.4C112.362 91.9118 112.211 91.4357 112.01 90.98C111.854 90.5441 111.559 90.1716 111.17 89.92C110.99 89.8305 110.784 89.8092 110.59 89.86L110.3 89.98C110.219 90.0348 110.151 90.1064 110.1 90.19C109.849 90.5882 109.654 91.0189 109.52 91.47C108.995 93.2507 108.591 95.0648 108.31 96.9C107.72 100.43 107.31 103.67 107.02 106.56V106.62L106.02 108.62L105.68 109.28L105.75 108.55C105.85 107.46 105.94 106.42 106.02 105.45C106.02 104.96 106.11 104.45 106.15 104.03C106.19 103.61 106.15 103.14 106.15 102.72C106.133 101.282 105.855 99.8588 105.33 98.52C105.137 98.0469 104.806 97.6427 104.38 97.36C104.058 97.1789 103.682 97.1186 103.32 97.19C103.025 97.2594 102.737 97.3565 102.46 97.48V97.48Z" fill="#FF9A6C"/>
<path d="M122.21 106.73C122.488 105.121 122.924 103.544 123.51 102.02V102.11V101.49C123.311 99.663 123.291 97.8209 123.45 95.99C123.811 97.7916 124.005 99.6227 124.03 101.46V102.08V102.18C123.577 103.754 122.967 105.278 122.21 106.73V106.73Z" fill="#FF9A6C"/>
<path d="M63.23 162.87C63.23 162.87 64.45 177.45 70.42 181.18C76.39 184.91 84.42 187.26 91.35 170C94.61 161.85 111.13 118.86 111.13 118.86L97.03 113.42L69.69 157.57L63.23 162.87Z" fill="#FFBF9D"/>
<path d="M116.53 112.44L147.53 156.58C147.53 156.58 157.02 176.7 144.16 182.78C133.58 187.78 125.68 177.13 122.45 167.86C119.15 158.37 105.14 120.68 105.14 120.68L116.53 112.44Z" fill="#FFBF9D"/>
<path d="M95.76 88.77C95.76 88.77 94.76 100.12 94.76 101.61C94.76 103.1 97.06 113.42 97.06 113.42L109.06 124.23L120.99 105.4L123.4 97.94C123.4 97.94 122.25 97.03 120.99 98.52L122.59 93.13C122.59 93.13 120.76 90.72 119.59 92.9C118.42 95.08 117.3 97.37 117.3 97.37L112.6 102.53L117.76 94.62L118.9 88.77C118.9 88.77 117.3 86.94 115.46 89.58C114.324 91.2135 113.32 92.9357 112.46 94.73L108.34 99.03L113.61 89.92C113.61 89.92 114.76 86.48 112.69 86.48C110.62 86.48 101.69 99.55 101.69 99.55L99.92 100.81L99.01 96.09C99.01 96.09 100.35 88.77 95.76 88.77Z" fill="#FFBF9D"/>
<path d="M101.06 145L101.18 144.63L101.56 143.63L103.09 139.54C104.45 135.95 106.43 130.76 108.91 124.22C112.24 118.94 116.27 112.55 120.79 105.36V105.41C121.54 103.07 122.35 100.55 123.19 97.95L123.26 98.21C123.108 98.102 122.935 98.0289 122.751 97.996C122.568 97.9632 122.38 97.9714 122.2 98.02C121.803 98.1616 121.456 98.4151 121.2 98.75L120.47 99.62L120.79 98.53C121.29 96.85 121.79 95.01 122.39 93.14V93.36C122.018 92.8477 121.469 92.4914 120.85 92.36C120.706 92.3534 120.563 92.3828 120.434 92.4457C120.305 92.5086 120.193 92.6029 120.11 92.72C119.895 92.9885 119.717 93.2844 119.58 93.6L117.58 97.6L112.89 102.76L112.48 102.45L117.64 94.54V94.63C118.01 92.78 118.4 90.79 118.79 88.78L118.85 89C118.669 88.8029 118.441 88.6547 118.188 88.569C117.934 88.4834 117.663 88.4631 117.4 88.51C116.836 88.6739 116.345 89.027 116.01 89.51C114.798 91.1967 113.744 92.9909 112.86 94.87V94.87C111.47 96.32 110.1 97.75 108.73 99.16L107.25 100.7L108.32 98.86L113.6 89.75C113.916 88.927 113.975 88.0274 113.77 87.17C113.704 86.9975 113.583 86.8518 113.426 86.7558C113.268 86.6598 113.083 86.6191 112.9 86.64C112.524 86.7736 112.183 86.9887 111.9 87.27C110.585 88.4986 109.378 89.8367 108.29 91.27C106.07 94.05 104.04 96.86 102.14 99.6L100.3 100.86L100.01 101.05L99.95 100.71C99.64 99.1 99.34 97.53 99.04 95.99V95.91C99.3246 94.3971 99.2974 92.842 98.96 91.34C98.8119 90.6428 98.4645 90.0035 97.96 89.5C97.42 89.0693 96.7506 88.8332 96.06 88.83L96.27 88.65C96.03 91.25 95.8066 93.7267 95.6 96.08C95.5 97.25 95.41 98.39 95.32 99.5C95.32 100.06 95.25 100.6 95.21 101.14C95.1981 101.66 95.2417 102.179 95.34 102.69C96.04 106.8 96.83 110.34 97.44 113.26L93.29 119.86L91.92 121.77C91.67 122.14 91.53 122.32 91.53 122.32L91.86 121.73C92.11 121.33 92.45 120.73 92.86 120.02L96.92 113.36V113.45C96.28 110.53 95.46 107.01 94.73 102.88C94.6233 102.347 94.573 101.804 94.58 101.26C94.58 100.72 94.65 100.18 94.68 99.62C94.77 98.51 94.85 97.36 94.94 96.19L95.57 88.75V88.56H95.75C96.5393 88.5553 97.306 88.8238 97.92 89.32C98.4951 89.8579 98.8986 90.5537 99.08 91.32C99.4389 92.8831 99.4729 94.5032 99.18 96.08V96C99.48 97.54 99.79 99.1 100.11 100.72L99.75 100.57L101.59 99.31L101.53 99.37C103.43 96.62 105.45 93.8 107.68 90.99C108.789 89.5378 110.017 88.1799 111.35 86.93C111.716 86.5644 112.176 86.3081 112.68 86.19C112.961 86.1763 113.241 86.2384 113.49 86.37C113.734 86.5202 113.923 86.7445 114.03 87.01C114.209 87.4922 114.26 88.0121 114.18 88.52C114.129 89.0057 114.029 89.4848 113.88 89.95V89.95L108.61 99.06L108.2 98.75L112.33 94.45L112.28 94.53C113.179 92.6115 114.253 90.7803 115.49 89.06C115.893 88.4681 116.491 88.0364 117.18 87.84C117.534 87.7724 117.9 87.7976 118.242 87.9133C118.584 88.0289 118.89 88.231 119.13 88.5L119.22 88.59V88.72C118.83 90.72 118.44 92.72 118.07 94.57L112.91 102.48L112.51 102.17L117.21 97.01V97.07L119.21 93.07C119.368 92.7133 119.57 92.3775 119.81 92.07C119.946 91.9001 120.12 91.7646 120.318 91.6743C120.516 91.5839 120.733 91.5414 120.95 91.55C121.72 91.6962 122.402 92.1376 122.85 92.78L122.92 92.87V93C122.37 94.87 121.82 96.71 121.31 98.38L120.91 98.17C121.233 97.7578 121.672 97.4513 122.17 97.29C122.42 97.2251 122.681 97.2156 122.935 97.2622C123.189 97.3089 123.429 97.4105 123.64 97.56L123.77 97.66L123.72 97.82C122.87 100.41 122.05 102.93 121.3 105.26L109.3 124.07C106.76 130.58 104.73 135.76 103.3 139.33L101.69 143.39C101.51 143.83 101.37 144.18 101.26 144.39C101.233 144.604 101.165 144.811 101.06 145V145Z" fill="#FF9A6C"/>
<path d="M121.14 98.02C120.979 99.3273 120.67 100.612 120.22 101.85V101.85L119.64 102.56C118.665 103.854 117.556 105.041 116.33 106.1C117.158 104.706 118.134 103.406 119.24 102.22L119.83 101.53L119.78 101.61C120.098 100.366 120.554 99.1622 121.14 98.02Z" fill="#FF9A6C"/>
<path d="M367.87 0.479996H234.48V172.76H367.87V0.479996Z" fill="#455A64"/>
<path d="M367.92 0.479996C367.817 0.651783 367.693 0.809729 367.55 0.949995L366.36 2.24L361.85 7.17L361.8 7.23H361.72C350.12 7.35 327.33 7.42999 301.18 7.42999C275.03 7.42999 252.23 7.35 240.63 7.23H240.55L240.5 7.17L235.99 2.24L234.85 0.949995C234.707 0.809729 234.583 0.651783 234.48 0.479996C234.644 0.593459 234.791 0.727946 234.92 0.879995L236.13 2.1L240.77 6.92L240.63 6.85999C252.23 6.73999 275.01 6.65999 301.18 6.65999C327.35 6.65999 350.12 6.73999 361.72 6.85999L361.58 6.92L366.22 2.1L367.43 0.879995C367.577 0.727924 367.742 0.59367 367.92 0.479996V0.479996Z" fill="#263238"/>
<path d="M234.48 172.76C234.585 172.593 234.709 172.438 234.85 172.3L235.99 171.01L240.5 166.07L240.55 166.01H240.63C252.23 165.89 275.02 165.81 301.17 165.81C327.32 165.81 350.12 165.89 361.72 166.01H361.8L361.85 166.07L366.36 171.01L367.5 172.3C367.641 172.438 367.765 172.593 367.87 172.76C367.71 172.645 367.563 172.515 367.43 172.37L366.22 171.14L361.58 166.33H361.72C350.12 166.45 327.34 166.53 301.17 166.53C275 166.53 252.23 166.45 240.63 166.33H240.77C238.77 168.39 237.24 170 236.13 171.14L234.92 172.37C234.79 172.518 234.642 172.649 234.48 172.76V172.76Z" fill="#263238"/>
<path d="M361.71 7.05H240.63V166.2H361.71V7.05Z" fill="white"/>
<path d="M259.58 119.65C263.18 116.22 268.5 115.25 273.47 115.38C278.44 115.51 283.37 116.55 288.34 116.49C296.34 116.39 304.22 113.49 312.06 114.81C314.57 115.24 317.11 116.11 319.59 115.58C321.77 115.12 323.59 113.58 325.73 112.99C331.25 111.35 337.47 115.67 342.73 113.41V148.94H259.58V119.65Z" fill="#CD8802"/>
<path d="M261.26 121.08C261.04 121.08 260.87 100.08 260.87 74.08C260.87 48.08 261.04 27.08 261.26 27.08C261.48 27.08 261.64 48.08 261.64 74.08C261.64 100.08 261.47 121.08 261.26 121.08Z" fill="#263238"/>
<path d="M265.04 121.08C264.83 121.08 264.66 100.08 264.66 74.08C264.66 48.08 264.83 27.08 265.04 27.08C265.25 27.08 265.43 48.08 265.43 74.08C265.43 100.08 265.26 121.08 265.04 121.08Z" fill="#263238"/>
<path d="M268.83 121.08C268.62 121.08 268.44 100.08 268.44 74.08C268.44 48.08 268.62 27.08 268.83 27.08C269.04 27.08 269.22 48.08 269.22 74.08C269.22 100.08 269.04 121.08 268.83 121.08Z" fill="#263238"/>
<path d="M272.62 121.08C272.4 121.08 272.23 100.08 272.23 74.08C272.23 48.08 272.4 27.08 272.62 27.08C272.84 27.08 273 48.08 273 74.08C273 100.08 272.83 121.08 272.62 121.08Z" fill="#263238"/>
<path d="M276.41 121.08C276.19 121.08 276.02 100.08 276.02 74.08C276.02 48.08 276.19 27.08 276.41 27.08C276.63 27.08 276.79 48.08 276.79 74.08C276.79 100.08 276.62 121.08 276.41 121.08Z" fill="#263238"/>
<path d="M280.19 121.08C279.98 121.08 279.81 100.08 279.81 74.08C279.81 48.08 279.98 27.08 280.19 27.08C280.4 27.08 280.58 48.08 280.58 74.08C280.58 100.08 280.41 121.08 280.19 121.08Z" fill="#263238"/>
<path d="M283.98 121.08C283.77 121.08 283.59 100.08 283.59 74.08C283.59 48.08 283.77 27.08 283.98 27.08C284.19 27.08 284.37 48.08 284.37 74.08C284.37 100.08 284.19 121.08 283.98 121.08Z" fill="#263238"/>
<path d="M287.77 121.08C287.56 121.08 287.38 100.08 287.38 74.08C287.38 48.08 287.56 27.08 287.77 27.08C287.98 27.08 288.15 48.08 288.15 74.08C288.15 100.08 287.98 121.08 287.77 121.08Z" fill="#263238"/>
<path d="M291.56 121.08C291.34 121.08 291.17 100.08 291.17 74.08C291.17 48.08 291.34 27.08 291.56 27.08C291.78 27.08 291.94 48.08 291.94 74.08C291.94 100.08 291.77 121.08 291.56 121.08Z" fill="#263238"/>
<path d="M295.34 121.08C295.13 121.08 294.96 100.08 294.96 74.08C294.96 48.08 295.13 27.08 295.34 27.08C295.55 27.08 295.73 48.08 295.73 74.08C295.73 100.08 295.56 121.08 295.34 121.08Z" fill="#263238"/>
<path d="M299.13 121.08C298.92 121.08 298.74 100.08 298.74 74.08C298.74 48.08 298.92 27.08 299.13 27.08C299.34 27.08 299.52 48.08 299.52 74.08C299.52 100.08 299.34 121.08 299.13 121.08Z" fill="#263238"/>
<path d="M302.92 121.08C302.71 121.08 302.53 100.08 302.53 74.08C302.53 48.08 302.71 27.08 302.92 27.08C303.13 27.08 303.31 48.08 303.31 74.08C303.31 100.08 303.13 121.08 302.92 121.08Z" fill="#263238"/>
<path d="M306.71 121.08C306.49 121.08 306.32 100.08 306.32 74.08C306.32 48.08 306.49 27.08 306.71 27.08C306.93 27.08 307.09 48.08 307.09 74.08C307.09 100.08 306.92 121.08 306.71 121.08Z" fill="#263238"/>
<path d="M310.49 121.08C310.28 121.08 310.11 100.08 310.11 74.08C310.11 48.08 310.28 27.08 310.49 27.08C310.7 27.08 310.88 48.08 310.88 74.08C310.88 100.08 310.71 121.08 310.49 121.08Z" fill="#263238"/>
<path d="M314.28 121.08C314.07 121.08 313.89 100.08 313.89 74.08C313.89 48.08 314.07 27.08 314.28 27.08C314.49 27.08 314.67 48.08 314.67 74.08C314.67 100.08 314.49 121.08 314.28 121.08Z" fill="#263238"/>
<path d="M318.07 121.08C317.86 121.08 317.68 100.08 317.68 74.08C317.68 48.08 317.86 27.08 318.07 27.08C318.28 27.08 318.46 48.08 318.46 74.08C318.46 100.08 318.28 121.08 318.07 121.08Z" fill="#263238"/>
<path d="M321.86 121.08C321.64 121.08 321.47 100.08 321.47 74.08C321.47 48.08 321.64 27.08 321.86 27.08C322.08 27.08 322.24 48.08 322.24 74.08C322.24 100.08 322.07 121.08 321.86 121.08Z" fill="#263238"/>
<path d="M325.64 121.08C325.43 121.08 325.26 100.08 325.26 74.08C325.26 48.08 325.43 27.08 325.64 27.08C325.85 27.08 326.03 48.08 326.03 74.08C326.03 100.08 325.86 121.08 325.64 121.08Z" fill="#263238"/>
<path d="M329.43 121.08C329.22 121.08 329.05 100.08 329.05 74.08C329.05 48.08 329.22 27.08 329.43 27.08C329.64 27.08 329.82 48.08 329.82 74.08C329.82 100.08 329.64 121.08 329.43 121.08Z" fill="#263238"/>
<path d="M333.22 121.08C333.01 121.08 332.83 100.08 332.83 74.08C332.83 48.08 333.01 27.08 333.22 27.08C333.43 27.08 333.61 48.08 333.61 74.08C333.61 100.08 333.43 121.08 333.22 121.08Z" fill="#263238"/>
<path d="M337.01 121.08C336.79 121.08 336.62 100.08 336.62 74.08C336.62 48.08 336.79 27.08 337.01 27.08C337.23 27.08 337.39 48.08 337.39 74.08C337.39 100.08 337.22 121.08 337.01 121.08Z" fill="#263238"/>
<path d="M340.79 121.08C340.58 121.08 340.41 100.08 340.41 74.08C340.41 48.08 340.58 27.08 340.79 27.08C341 27.08 341.18 48.08 341.18 74.08C341.18 100.08 341.01 121.08 340.79 121.08Z" fill="#263238"/>
<path d="M185 44.26L173.62 32.47L170.79 51.11L155.54 50.6L165.08 63.13L155.48 75.73L171.38 72.59L173.68 88.59L186.54 78.85L202.74 87.34L199.2 70.96L217.59 68.07L203.28 59.63L211.62 45.24L197.33 50.83L195.59 33.09L185 44.26Z" fill="white"/>
<path d="M185 44.24L185.7 43.48C186.17 42.97 186.84 42.24 187.7 41.29L195.47 33L195.65 32.81V33.07C196.13 37.89 196.74 43.88 197.44 50.81L197.21 50.67L211.49 45.05L212.02 44.84L211.73 45.33L203.41 59.73L203.34 59.43L217.65 67.85L218.22 68.19L217.56 68.29L199.24 71.24L199.44 70.94C200.57 76.16 201.77 81.68 202.99 87.32L203.11 87.85L202.63 87.6L188.58 80.24L186.42 79.11H186.69L173.83 88.84L173.49 89.1L173.43 88.68C172.65 83.22 171.887 77.8867 171.14 72.68L171.43 72.89L155.53 76.01L154.91 76.13L155.29 75.63C158.63 71.27 161.84 67.06 164.91 63.04V63.24L155.38 50.7L155.12 50.36H155.55L170.8 50.91L170.62 51.06C171.75 43.72 172.72 37.48 173.5 32.42V32.18L173.67 32.35L182.05 41.14L184.22 43.43C184.71 43.94 184.96 44.22 184.96 44.22C184.96 44.22 184.71 43.99 184.22 43.49L182.03 41.27L173.49 32.52L173.7 32.46C172.94 37.52 172.01 43.77 170.92 51.11V51.26H170.76L155.51 50.78L155.68 50.45L165.24 62.97L165.34 63.11L165.24 63.24L155.65 75.85L155.42 75.47L171.31 72.33H171.57V72.59C172.323 77.79 173.09 83.1233 173.87 88.59L173.47 88.43L186.32 78.69L186.45 78.59L186.59 78.66L188.76 79.8L202.76 87.15L202.4 87.43L198.92 71.02L198.87 70.76H199.13L217.52 67.87L217.44 68.31L203.14 59.86L202.95 59.74L203.06 59.56C206.06 54.46 208.84 49.63 211.42 45.18L211.66 45.47L197.36 51.03L197.15 51.11V50.89C196.49 43.96 195.92 37.96 195.46 33.15L195.67 33.22L187.74 41.47L185.69 43.59C185.24 44.03 185 44.24 185 44.24Z" fill="#263238"/>
<path d="M161.53 88.59C161.53 89.2625 161.331 89.9198 160.957 90.4789C160.583 91.0381 160.052 91.4739 159.431 91.7312C158.81 91.9885 158.126 92.0559 157.467 91.9247C156.807 91.7935 156.201 91.4697 155.726 90.9942C155.25 90.5187 154.927 89.9128 154.795 89.2533C154.664 88.5938 154.731 87.9101 154.989 87.2889C155.246 86.6676 155.682 86.1366 156.241 85.763C156.8 85.3894 157.458 85.19 158.13 85.19C158.577 85.19 159.019 85.2779 159.431 85.4488C159.844 85.6197 160.218 85.8701 160.534 86.1858C160.85 86.5016 161.1 86.8764 161.271 87.2889C161.442 87.7014 161.53 88.1435 161.53 88.59Z" fill="white"/>
<path d="M161.53 88.59C161.48 88.59 161.48 88.29 161.32 87.78C161.102 87.08 160.668 86.4673 160.08 86.03C159.651 85.7233 159.153 85.5257 158.631 85.4543C158.108 85.3829 157.576 85.4397 157.08 85.62C156.475 85.8459 155.953 86.2514 155.584 86.7822C155.216 87.313 155.018 87.9438 155.018 88.59C155.018 89.2362 155.216 89.8669 155.584 90.3978C155.953 90.9286 156.475 91.3341 157.08 91.56C157.576 91.7403 158.108 91.7971 158.631 91.7257C159.153 91.6543 159.651 91.4567 160.08 91.15C160.668 90.7127 161.102 90.1 161.32 89.4C161.48 88.89 161.48 88.59 161.53 88.59C161.604 88.8685 161.604 89.1615 161.53 89.44C161.371 90.2295 160.939 90.9377 160.31 91.44C159.836 91.8144 159.274 92.0621 158.677 92.1601C158.081 92.258 157.469 92.203 156.9 92C156.192 91.7539 155.578 91.2933 155.143 90.6822C154.708 90.0711 154.475 89.3399 154.475 88.59C154.475 87.8401 154.708 87.1089 155.143 86.4978C155.578 85.8867 156.192 85.4261 156.9 85.18C157.469 84.977 158.081 84.922 158.677 85.0199C159.274 85.1179 159.836 85.3656 160.31 85.74C160.939 86.2422 161.371 86.9505 161.53 87.74C161.604 88.0185 161.604 88.3115 161.53 88.59V88.59Z" fill="#263238"/>
<path d="M186.68 51.57L186 62.44C185.972 62.8699 185.787 63.2748 185.482 63.5785C185.176 63.8823 184.77 64.0642 184.34 64.09C183.888 64.1158 183.443 63.9675 183.097 63.6755C182.751 63.3834 182.53 62.9699 182.48 62.52L181.28 51.6C181.257 51.405 181.276 51.2073 181.336 51.0202C181.396 50.8332 181.495 50.661 181.626 50.5152C181.758 50.3694 181.919 50.2534 182.099 50.1749C182.279 50.0964 182.474 50.0572 182.67 50.06H185.32C185.511 50.0619 185.7 50.1035 185.874 50.182C186.048 50.2606 186.204 50.3744 186.332 50.5164C186.459 50.6583 186.556 50.8253 186.616 51.0066C186.676 51.188 186.698 51.3798 186.68 51.57V51.57Z" fill="#263238"/>
<path d="M181.46 70.24C181.625 70.7374 181.934 71.1747 182.348 71.4965C182.761 71.8184 183.261 72.0103 183.784 72.0481C184.307 72.0859 184.829 71.9678 185.285 71.7088C185.74 71.4498 186.109 71.0615 186.344 70.5929C186.579 70.1244 186.67 69.5968 186.605 69.0767C186.54 68.5566 186.322 68.0675 185.979 67.6711C185.636 67.2747 185.183 66.989 184.678 66.8499C184.173 66.7109 183.637 66.7249 183.14 66.89C182.809 66.9985 182.503 67.1715 182.239 67.3989C181.975 67.6264 181.759 67.9038 181.602 68.2152C181.446 68.5266 181.353 68.8658 181.329 69.2134C181.304 69.5609 181.349 69.9098 181.46 70.24V70.24Z" fill="#263238"/>
</svg>
